<?xml version="1.0" encoding="UTF-8"?>
<svg version="1.1" xmlns="http://www.w3.org/2000/svg" width="572" height="354">
<path d="M0 0 C188.76 0 377.52 0 572 0 C572 116.82 572 233.64 572 354 C383.24 354 194.48 354 0 354 C0 237.18 0 120.36 0 0 Z " fill="#222221" transform="translate(0,0)"/>
<path d="M0 0 C0.47050781 0.41507813 0.94101563 0.83015625 1.42578125 1.2578125 C4.80592809 4.10020871 8.17860372 5.70955744 12.17578125 7.5703125 C12.17578125 8.2303125 12.17578125 8.8903125 12.17578125 9.5703125 C12.91828125 9.84617187 13.66078125 10.12203125 14.42578125 10.40625 C16.95284658 11.47594527 18.93662619 12.6296533 21.17578125 14.1953125 C25.05180085 16.84012588 28.99277769 19.3607632 32.98828125 21.8203125 C34.06722656 22.48546875 35.14617187 23.150625 36.2578125 23.8359375 C38.53395104 25.18882306 40.7862147 26.43628092 43.17578125 27.5703125 C43.17578125 28.2303125 43.17578125 28.8903125 43.17578125 29.5703125 C44.12453125 29.8796875 45.07328125 30.1890625 46.05078125 30.5078125 C49.17578125 31.5703125 49.17578125 31.5703125 51.17578125 32.5703125 C51.17578125 33.2303125 51.17578125 33.8903125 51.17578125 34.5703125 C51.86414063 34.81394531 52.5525 35.05757812 53.26171875 35.30859375 C56.68379072 36.79026834 59.70145492 38.7095844 62.80078125 40.7578125 C64.04797439 41.57192519 65.29537255 42.38572387 66.54296875 43.19921875 C67.1575293 43.60156738 67.77208984 44.00391602 68.40527344 44.41845703 C70.89491725 46.03816739 73.41076791 47.61536822 75.92578125 49.1953125 C79.51257283 51.46343071 82.98186101 53.84110486 86.42578125 56.3203125 C89.25224436 58.33343726 91.89313139 60.02415155 95.11328125 61.3203125 C98.00387391 62.50014624 99.1411489 63.34190564 101.17578125 65.5703125 C103.27567777 66.74605961 103.27567777 66.74605961 105.17578125 67.5703125 C105.17578125 68.2303125 105.17578125 68.8903125 105.17578125 69.5703125 C106.00078125 69.7971875 106.82578125 70.0240625 107.67578125 70.2578125 C111.30127934 71.61737428 114.21632532 73.34291589 117.44140625 75.44921875 C119.18090843 76.6186958 119.18090843 76.6186958 121.17578125 77.5703125 C121.17578125 78.2303125 121.17578125 78.8903125 121.17578125 79.5703125 C121.89378906 79.83714844 122.61179688 80.10398437 123.3515625 80.37890625 C126.21034625 81.58489386 128.72331773 83.00729789 131.36328125 84.6328125 C134.71428915 86.70137015 134.71428915 86.70137015 138.17578125 88.5703125 C138.17578125 89.2303125 138.17578125 89.8903125 138.17578125 90.5703125 C139.28566406 90.98216797 139.28566406 90.98216797 140.41796875 91.40234375 C142.9818386 92.48817532 145.02155744 93.67622183 147.30078125 95.2578125 C150.62213413 97.52311743 153.96664376 99.73177551 157.36328125 101.8828125 C162.24634568 104.97655822 167.11427157 108.09276638 171.9699707 111.22924805 C174.70912768 112.99623962 177.45535903 114.74263538 180.23046875 116.453125 C189.4363505 122.13986081 198.04878618 127.64030657 201.17578125 138.5703125 C202.16957509 147.69601555 202.0303047 155.35174537 196.46484375 162.88671875 C190.92479414 169.63157469 184.3869537 174.03872738 177.00195312 178.46582031 C174.04344057 180.25516668 171.14252462 182.13212112 168.23828125 184.0078125 C167.66303711 184.37729004 167.08779297 184.74676758 166.49511719 185.12744141 C160.30265514 189.11175204 154.18404681 193.2055968 148.06689453 197.30419922 C144.93979617 199.39781296 141.80754924 201.4836934 138.67578125 203.5703125 C137.43747493 204.39579572 136.19919374 205.22131666 134.9609375 206.046875 C119.515625 216.34375 119.515625 216.34375 117.82763672 217.46386719 C116.70563517 218.21540591 115.59023323 218.97687278 114.48095703 219.74707031 C110.38490109 222.5703125 110.38490109 222.5703125 108.17578125 222.5703125 C107.84578125 223.5603125 107.51578125 224.5503125 107.17578125 225.5703125 C105.2421875 226.7109375 105.2421875 226.7109375 102.73828125 227.8203125 C98.06030475 230.04318077 93.99956774 232.65531944 89.80859375 235.68359375 C86.9735211 237.7152556 84.08521797 239.64681022 81.17578125 241.5703125 C77.3613779 244.09692627 73.59355515 246.67119538 69.86328125 249.3203125 C67.15099069 251.23665176 64.4621355 253.0358394 61.55078125 254.6328125 C58.87914873 256.16652747 56.60285787 257.7058341 54.17578125 259.5703125 C51.27484936 261.79454517 48.34669431 263.69227093 45.13671875 265.45703125 C36.53502075 270.34046537 28.38639963 276.06671012 20.17578125 281.5703125 C17.1086623 283.61762509 14.04003792 285.66267905 10.96948242 287.70483398 C7.69264391 289.88562507 4.42394264 292.07721844 1.16796875 294.2890625 C0.50966064 294.7339502 -0.14864746 295.17883789 -0.8269043 295.63720703 C-2.07058867 296.47804752 -3.31185378 297.32248357 -4.55004883 298.17138672 C-14.35749791 304.7831192 -21.88920569 307.15599882 -33.82421875 305.5703125 C-37.44988825 304.13324742 -39.99494513 302.2249396 -42.82421875 299.5703125 C-43.49195313 298.9825 -44.1596875 298.3946875 -44.84765625 297.7890625 C-48.14664903 294.71897942 -50.70226174 292.05814054 -51.82421875 287.5703125 C-51.82421875 286.5803125 -51.82421875 285.5903125 -51.82421875 284.5703125 C-52.48421875 284.5703125 -53.14421875 284.5703125 -53.82421875 284.5703125 C-55.01543923 282.18787153 -54.9495359 280.74374509 -54.95005989 278.08467197 C-54.95266764 277.13505638 -54.95527539 276.18544078 -54.95796216 275.20704895 C-54.95573143 274.15658306 -54.95350071 273.10611716 -54.95120239 272.02381897 C-54.95276238 270.91350058 -54.95432237 269.80318218 -54.95592964 268.65921777 C-54.95993983 264.913505 -54.95674989 261.16783227 -54.95361328 257.42211914 C-54.95496732 254.74692159 -54.9567109 252.07172686 -54.95892334 249.39653015 C-54.96337924 242.86924665 -54.96240532 236.34197462 -54.9595107 229.81469066 C-54.95725577 224.51108205 -54.95694454 219.20747667 -54.95803452 213.90386772 C-54.95818775 213.15010661 -54.95834098 212.3963455 -54.95849886 211.61974315 C-54.95881857 210.08865941 -54.95914278 208.55757567 -54.95947145 207.02649193 C-54.96232576 192.65569594 -54.95904008 178.28490632 -54.95367108 163.91411137 C-54.949204 151.57530608 -54.94997829 139.2365102 -54.95458984 126.89770508 C-54.95993802 112.58120218 -54.96205012 98.26470488 -54.95897758 83.94820112 C-54.95865902 82.4223251 -54.95834465 80.89644907 -54.95803452 79.37057304 C-54.95788024 78.61974716 -54.95772596 77.86892128 -54.95756701 77.0953431 C-54.95670252 71.79678176 -54.9581633 66.49822396 -54.96051407 61.19966316 C-54.963315 54.7443066 -54.96256761 48.28896219 -54.95723332 41.83360703 C-54.95460015 38.53810483 -54.95412055 35.2426272 -54.95688248 31.94712448 C-54.95959777 28.37932569 -54.95620809 24.81158474 -54.95120239 21.24378967 C-54.95343311 20.1955545 -54.95566384 19.14731933 -54.95796216 18.06731945 C-54.95535441 17.11509611 -54.95274666 16.16287276 -54.95005989 15.18179417 C-54.94989754 14.35774603 -54.94973519 13.5336979 -54.94956791 12.68467861 C-54.82421875 10.5703125 -54.82421875 10.5703125 -53.82421875 7.5703125 C-53.16421875 7.5703125 -52.50421875 7.5703125 -51.82421875 7.5703125 C-51.70046875 6.6009375 -51.57671875 5.6315625 -51.44921875 4.6328125 C-49.76908468 -1.28996229 -44.59907185 -4.92281511 -39.82421875 -8.4296875 C-26.19871852 -14.73778946 -11.02550652 -8.64097513 0 0 Z " fill="#84AA52" transform="translate(99.82421875,37.4296875)"/>
<path d="M0 0 C6.32792044 2.70014047 12.20218568 6.31946955 18 10 C18 10.66 18 11.32 18 12 C18.825 12.226875 19.65 12.45375 20.5 12.6875 C24.12549809 14.04706178 27.04054407 15.77260339 30.265625 17.87890625 C32.00512718 19.0483833 32.00512718 19.0483833 34 20 C34 20.66 34 21.32 34 22 C34.78375 22.185625 35.5675 22.37125 36.375 22.5625 C40.55504137 24.22010261 43.71402374 26.49997194 47.33984375 29.125 C52.27591273 32.60416757 57.51257725 35.62235048 62.79296875 38.546875 C63.52128906 39.02640625 64.24960938 39.5059375 65 40 C65 40.66 65 41.32 65 42 C65.804375 42.165 66.60875 42.33 67.4375 42.5 C72.6231139 44.68341638 78.4200708 48.84014161 81 54 C81.65988943 58.87418328 82.05339025 63.74712888 79.9296875 68.2890625 C75.58847178 73.76466624 69.51475618 76.81570907 63.47265625 80.0703125 C60.51323893 81.71480311 57.84780394 83.43801284 55.125 85.4375 C51.01479092 88.41084274 46.75158801 90.87746373 42.3125 93.3125 C36.2360623 96.65065336 30.46825595 100.26749015 24.74682617 104.17871094 C19.10543053 108.00485406 13.27086662 111.45721821 7.36938477 114.86499023 C3.98850229 116.66288797 3.98850229 116.66288797 1 119 C-5.2496019 119.62256571 -10.5092221 119.27334836 -16 116 C-20.04536966 112.04615454 -22.9290276 108.9429041 -23.14044189 103.15533447 C-23.15254716 101.45547345 -23.15897602 99.75556682 -23.16113281 98.05566406 C-23.16609772 97.12866699 -23.17106262 96.20166992 -23.17617798 95.24658203 C-23.19082246 92.16958888 -23.19760606 89.09264732 -23.203125 86.015625 C-23.20887538 83.88051349 -23.21463313 81.745402 -23.22039795 79.61029053 C-23.230915 75.12788654 -23.23675279 70.64550053 -23.24023438 66.16308594 C-23.24571497 60.42185361 -23.26973087 54.68085894 -23.29820633 48.93970108 C-23.31684062 44.52674672 -23.32203878 40.11384945 -23.32357025 35.70085907 C-23.32659644 33.58457899 -23.33462382 31.46829991 -23.34775543 29.35205841 C-23.36482921 26.38849394 -23.36293209 23.4255079 -23.35644531 20.46191406 C-23.3656601 19.58895691 -23.37487488 18.71599976 -23.3843689 17.81658936 C-23.34492617 12.0578089 -22.37592295 7.91899105 -18.6328125 3.3203125 C-12.98155917 -1.15969662 -6.89780036 -1.50714134 0 0 Z " fill="#1F1F1F" transform="translate(131,125)"/>
<path d="M0 0 C5.05737253 1.01147451 6.2284334 1.66314264 9.9375 4.875 C10.89140625 5.68453125 11.8453125 6.4940625 12.828125 7.328125 C13.59286133 7.9787793 13.59286133 7.9787793 14.37304688 8.64257812 C17.25223118 11.04477871 20.22551817 13.32635593 23.1875 15.625 C28.27261478 19.59082367 33.2280122 23.6577875 38 28 C37.66498709 30.88772555 37.43139344 32.55299993 35.38037109 34.67822266 C34.33743896 35.41371338 34.33743896 35.41371338 33.2734375 36.1640625 C32.49548828 36.72399902 31.71753906 37.28393555 30.91601562 37.86083984 C30.07748047 38.4430127 29.23894531 39.02518555 28.375 39.625 C26.64302162 40.85908376 24.91125357 42.09346278 23.1796875 43.328125 C22.31053711 43.94107422 21.44138672 44.55402344 20.54589844 45.18554688 C18.17267447 46.8769355 15.83447992 48.60470177 13.5078125 50.359375 C12.82799316 50.87032715 12.14817383 51.3812793 11.44775391 51.90771484 C10.17357271 52.8675831 8.90228297 53.83130478 7.63427734 54.79931641 C3.33552241 58 3.33552241 58 0 58 C0 54.04 0 50.08 0 46 C-36.3 46 -72.6 46 -110 46 C-110.33 42.04 -110.66 38.08 -111 34 C-112.54169767 31.08359534 -112.54169767 31.08359534 -114.9375 29.25 C-115.74445313 28.54101562 -116.55140625 27.83203125 -117.3828125 27.1015625 C-118.24648438 26.40804687 -119.11015625 25.71453125 -120 25 C-120.88429688 24.26523438 -121.76859375 23.53046875 -122.6796875 22.7734375 C-125.81620049 20.21396844 -128.97358239 17.71691861 -132.29296875 15.3984375 C-132.85628906 14.93695313 -133.41960937 14.47546875 -134 14 C-134 13.34 -134 12.68 -134 12 C-89.78 12 -45.56 12 0 12 C0 8.04 0 4.08 0 0 Z " fill="#A5CA69" transform="translate(511,143)"/>
<path d="M0 0 C47.19 0 94.38 0 143 0 C144.98623775 3.97247551 145.25611033 5.51357797 145.265625 9.7890625 C145.26820313 10.89507812 145.27078125 12.00109375 145.2734375 13.140625 C145.26570312 14.29046875 145.25796875 15.4403125 145.25 16.625 C145.25773438 17.78257813 145.26546875 18.94015625 145.2734375 20.1328125 C145.27085937 21.23625 145.26828125 22.3396875 145.265625 23.4765625 C145.26336914 24.48799316 145.26111328 25.49942383 145.25878906 26.54150391 C145 29 145 29 143 31 C141.17210579 31.25726891 141.17210579 31.25726891 138.91409302 31.26742554 C138.05888062 31.27595551 137.20366821 31.28448547 136.32254028 31.29327393 C134.91208939 31.29191437 134.91208939 31.29191437 133.47314453 31.29052734 C132.48441345 31.29724457 131.49568237 31.30396179 130.47698975 31.31088257 C127.19554676 31.32994207 123.91430745 31.33379084 120.6328125 31.3359375 C118.35838739 31.34236012 116.08396313 31.34908807 113.80953979 31.35610962 C109.03625574 31.36810246 104.26304416 31.3717884 99.48974609 31.37060547 C93.36708841 31.37040222 87.24489459 31.39770193 81.12234688 31.43214989 C76.42294166 31.45436583 71.72364899 31.45844463 67.02419662 31.45738602 C64.7667061 31.45975008 62.50921285 31.46861858 60.25177383 31.48405075 C57.09606528 31.50360219 53.94136868 31.49791491 50.78564453 31.48583984 C49.8493924 31.49707886 48.91314026 31.50831787 47.94851685 31.51989746 C41.58421387 31.45787752 41.58421387 31.45787752 38.52218628 29.05801392 C38.01986481 28.37886932 37.51754333 27.69972473 37 27 C34.91329257 25.62155458 32.77863335 24.3914067 30.609375 23.1484375 C30.07828125 22.76945312 29.5471875 22.39046875 29 22 C29 21.34 29 20.68 29 20 C28.113125 19.7525 27.22625 19.505 26.3125 19.25 C22.82721403 17.93479775 20.87218884 16.33445364 18 14 C16.22442893 12.82938014 14.43223979 11.68361007 12.625 10.5625 C8.30164507 7.83627078 4.03632045 5.13936035 0 2 C0 1.34 0 0.68 0 0 Z " fill="#C3E08E" transform="translate(192,80)"/>
<path d="M0 0 C0.92250046 -0.00204437 1.84500092 -0.00408875 2.79545593 -0.00619507 C5.83828691 -0.00919809 8.88057345 0.00925827 11.92333984 0.02832031 C14.03892889 0.03137858 16.15451995 0.03325419 18.27011108 0.03399658 C22.70017217 0.03859647 27.13005117 0.05301198 31.56005859 0.07519531 C37.24425163 0.10351187 42.92830149 0.11441072 48.61255836 0.11887741 C52.97906939 0.12302966 57.34555136 0.13284498 61.71204758 0.1447525 C63.80846296 0.15045681 65.90488112 0.15521499 68.00130081 0.15901947 C70.92669862 0.16587826 73.85198231 0.17950814 76.77734375 0.1953125 C77.64702286 0.19643036 78.51670197 0.19754822 79.41273499 0.19869995 C82.77423251 0.22280646 85.54841798 0.28615886 88.75927734 1.35644531 C88.84619808 5.62715089 88.89964249 9.89762989 88.94677734 14.16894531 C88.97191406 15.38388672 88.99705078 16.59882813 89.02294922 17.85058594 C89.03745117 19.5956543 89.03745117 19.5956543 89.05224609 21.37597656 C89.07581177 22.98629761 89.07581177 22.98629761 89.09985352 24.62915039 C88.75927734 27.35644531 88.75927734 27.35644531 87.57848644 29.00435352 C85.07684067 30.8636531 83.41335809 30.7259142 80.31135559 30.71720886 C79.17973495 30.72133286 78.04811432 30.72545685 76.88220215 30.72970581 C75.63998901 30.71891998 74.39777588 30.70813416 73.11791992 30.69702148 C71.81050339 30.69745956 70.50308685 30.69789764 69.15605164 30.698349 C65.56944347 30.69921078 61.98313547 30.6815558 58.39659715 30.66062713 C54.64899095 30.64189056 50.9013781 30.64011228 47.1537323 30.6365509 C40.0564059 30.62722153 32.9592179 30.60259575 25.86195248 30.57250243 C17.78224965 30.53898612 9.70254024 30.5224794 1.62278521 30.50741613 C-14.99846514 30.47604691 -31.61957624 30.42326917 -48.24072266 30.35644531 C-46.50888648 26.56460968 -44.68352794 24.94510639 -41.24072266 22.54394531 C-40.25072266 21.8465625 -39.26072266 21.14917969 -38.24072266 20.43066406 C-37.25072266 19.74617188 -36.26072266 19.06167969 -35.24072266 18.35644531 C-33.57381727 17.19011975 -31.90713836 16.02347041 -30.24072266 14.85644531 C-29.43248047 14.29441406 -28.62423828 13.73238281 -27.79150391 13.15332031 C-24.08260036 10.54061644 -20.4329539 7.84849202 -16.78369141 5.15332031 C-15.94451172 4.56035156 -15.10533203 3.96738281 -14.24072266 3.35644531 C-13.21043442 2.56938202 -13.21043442 2.56938202 -12.15933228 1.76641846 C-8.06197933 -0.2130027 -4.49349111 -0.04783396 0 0 Z " fill="#699043" transform="translate(250.24072265625,253.6435546875)"/>
<path d="M0 0 C7.57124035 -0.18587618 15.14224248 -0.32776424 22.71524906 -0.41449738 C26.23245748 -0.45614113 29.74809821 -0.51255548 33.2644043 -0.60351562 C37.31313545 -0.70758551 41.36023702 -0.74597669 45.41015625 -0.78125 C46.66458023 -0.82254028 47.91900421 -0.86383057 49.21144104 -0.90637207 C57.7944954 -0.91076465 57.7944954 -0.91076465 61.3165741 1.75018311 C63.07652444 3.75207706 64.54466305 5.77155224 66 8 C67.37666724 9.43529873 68.76810343 10.85694275 70.1875 12.25 C70.82042969 12.87390625 71.45335937 13.4978125 72.10546875 14.140625 C73.45909369 15.46913113 74.86454119 16.74564843 76.30078125 17.984375 C78 20 78 20 77.9453125 22.078125 C76.85810124 24.2884884 75.82738901 25.2616317 73.875 26.75 C71.15644308 28.95363677 68.83397506 31.21189131 66.5625 33.875 C66.01078125 34.50990356 65.4590625 35.14480713 64.890625 35.7989502 C63.67461851 37.21461477 62.48711573 38.65554456 61.3371582 40.12536621 C58.5893013 43.33044817 56.41236886 45.64212656 52.24145508 46.69897461 C49.0069189 46.92344602 45.8650691 46.90091098 42.625 46.78125 C41.4599292 46.76993042 40.2948584 46.75861084 39.09448242 46.74694824 C35.39460754 46.70237293 31.69869173 46.60203288 28 46.5 C25.48312911 46.45984922 22.96619713 46.42335128 20.44921875 46.390625 C14.29814174 46.30269927 8.14935373 46.16904781 2 46 C2.28482368 44.58194169 2.57818144 43.16559621 2.875 41.75 C3.03742188 40.96109375 3.19984375 40.1721875 3.3671875 39.359375 C4 37 4 37 5.04711914 34.94946289 C6.66608239 31.63728723 6.42593783 28.05459531 6.4375 24.4375 C6.44064209 23.63554199 6.44378418 22.83358398 6.44702148 22.00732422 C6.32691095 16.01145443 5.13913546 11.45485851 2.19140625 6.1640625 C1.04004488 4.07273726 0.52692923 2.30905648 0 0 Z " fill="#80A847" transform="translate(308,160)"/>
<path d="M0 0 C2.94956528 1.36944102 5.52468811 2.87830409 8 5 C8 5.66 8 6.32 8 7 C8.88587296 6.97003433 9.77174591 6.94006866 10.6844635 6.90919495 C40.37215993 5.94272024 70.04146358 5.87632506 99.74261475 5.93133545 C105.99963022 5.94177466 112.25665011 5.94617603 118.51367188 5.95117188 C130.67579233 5.96172911 142.83789397 5.97867442 155 6 C155 6.66 155 7.32 155 8 C155.99 8.495 155.99 8.495 157 9 C155.79039039 9.89196209 154.58074748 10.783879 153.37109375 11.67578125 C152.58992187 12.25183105 151.80875 12.82788086 151.00390625 13.42138672 C149.28457403 14.68831474 147.5645144 15.95425617 145.84375 17.21923828 C141.71640469 20.25418629 137.59608861 23.29666236 133.50390625 26.37890625 C132.82465088 26.88703857 132.14539551 27.3951709 131.44555664 27.91870117 C130.17092317 28.87279687 128.90039786 29.83241145 127.63452148 30.7980957 C123.33759627 34 123.33759627 34 120 34 C120 30.04 120 26.08 120 22 C83.7 22 47.4 22 10 22 C9.67 18.04 9.34 14.08 9 10 C7.11089582 6.84173217 7.11089582 6.84173217 4.4375 4.8125 C3.61121094 4.09707031 2.78492188 3.38164062 1.93359375 2.64453125 C1.29550781 2.10183594 0.65742188 1.55914062 0 1 C0 0.67 0 0.34 0 0 Z " fill="#8FB654" transform="translate(391,167)"/>
<path d="M0 0 C0.47050781 0.41507813 0.94101563 0.83015625 1.42578125 1.2578125 C4.80592809 4.10020871 8.17860372 5.70955744 12.17578125 7.5703125 C12.17578125 8.2303125 12.17578125 8.8903125 12.17578125 9.5703125 C12.91828125 9.84617187 13.66078125 10.12203125 14.42578125 10.40625 C16.95284658 11.47594527 18.93662619 12.6296533 21.17578125 14.1953125 C25.05180085 16.84012588 28.99277769 19.3607632 32.98828125 21.8203125 C34.06722656 22.48546875 35.14617187 23.150625 36.2578125 23.8359375 C38.53395104 25.18882306 40.7862147 26.43628092 43.17578125 27.5703125 C43.17578125 28.2303125 43.17578125 28.8903125 43.17578125 29.5703125 C44.12453125 29.8796875 45.07328125 30.1890625 46.05078125 30.5078125 C49.17578125 31.5703125 49.17578125 31.5703125 51.17578125 32.5703125 C51.17578125 33.2303125 51.17578125 33.8903125 51.17578125 34.5703125 C51.86414063 34.81394531 52.5525 35.05757812 53.26171875 35.30859375 C56.68379072 36.79026834 59.70145492 38.7095844 62.80078125 40.7578125 C64.04797439 41.57192519 65.29537255 42.38572387 66.54296875 43.19921875 C67.1575293 43.60156738 67.77208984 44.00391602 68.40527344 44.41845703 C70.89491725 46.03816739 73.41076791 47.61536822 75.92578125 49.1953125 C79.51257283 51.46343071 82.98186101 53.84110486 86.42578125 56.3203125 C89.25224436 58.33343726 91.89313139 60.02415155 95.11328125 61.3203125 C98.00387391 62.50014624 99.1411489 63.34190564 101.17578125 65.5703125 C103.27567777 66.74605961 103.27567777 66.74605961 105.17578125 67.5703125 C105.17578125 68.2303125 105.17578125 68.8903125 105.17578125 69.5703125 C106.00078125 69.7971875 106.82578125 70.0240625 107.67578125 70.2578125 C111.30127934 71.61737428 114.21632532 73.34291589 117.44140625 75.44921875 C119.18090843 76.6186958 119.18090843 76.6186958 121.17578125 77.5703125 C121.17578125 78.2303125 121.17578125 78.8903125 121.17578125 79.5703125 C121.89378906 79.83714844 122.61179688 80.10398437 123.3515625 80.37890625 C126.21034625 81.58489386 128.72331773 83.00729789 131.36328125 84.6328125 C134.71428915 86.70137015 134.71428915 86.70137015 138.17578125 88.5703125 C138.17578125 89.2303125 138.17578125 89.8903125 138.17578125 90.5703125 C139.28566406 90.98216797 139.28566406 90.98216797 140.41796875 91.40234375 C142.9818386 92.48817532 145.02155744 93.67622183 147.30078125 95.2578125 C150.62213413 97.52311743 153.96664376 99.73177551 157.36328125 101.8828125 C162.24634568 104.97655822 167.11427157 108.09276638 171.9699707 111.22924805 C174.70912768 112.99623962 177.45535903 114.74263538 180.23046875 116.453125 C189.4363505 122.13986081 198.04878618 127.64030657 201.17578125 138.5703125 C202.16957509 147.69601555 202.0303047 155.35174537 196.46484375 162.88671875 C190.92479414 169.63157469 184.3869537 174.03872738 177.00195312 178.46582031 C174.04344057 180.25516668 171.14252462 182.13212112 168.23828125 184.0078125 C167.66303711 184.37729004 167.08779297 184.74676758 166.49511719 185.12744141 C160.30265514 189.11175204 154.18404681 193.2055968 148.06689453 197.30419922 C144.31959532 199.81304168 140.56566536 202.31195765 136.81201172 204.8112793 C133.61993085 206.93752412 130.43175484 209.0692656 127.25 211.2109375 C121.68264855 214.95423783 116.10630898 218.68790175 110.42578125 222.2578125 C109.28882813 222.97517578 109.28882813 222.97517578 108.12890625 223.70703125 C106.17578125 224.5703125 106.17578125 224.5703125 103.17578125 223.5703125 C108.0196771 219.15698517 113.04431458 215.61725451 118.625 212.18359375 C121.17090225 210.62949587 121.17090225 210.62949587 123.3828125 208.86328125 C125.17578125 207.5703125 125.17578125 207.5703125 127.17578125 207.5703125 C127.17578125 206.9103125 127.17578125 206.2503125 127.17578125 205.5703125 C129.04321616 204.287204 130.97366797 203.09550131 132.92578125 201.9453125 C134.12745004 201.22717783 135.32794646 200.50707827 136.52734375 199.78515625 C137.13868164 199.4176123 137.75001953 199.05006836 138.37988281 198.67138672 C142.07921444 196.40330819 145.65280244 193.94466179 149.25 191.51953125 C153.02086775 189.0072976 156.85478815 186.60236251 160.703125 184.2109375 C163.22099475 182.600521 163.22099475 182.600521 165.5546875 180.6171875 C168.04027368 178.67613361 170.58910717 177.15597326 173.34228516 175.62841797 C176.48025233 173.81750589 179.41417962 171.7328816 182.36328125 169.6328125 C182.96591797 169.21580078 183.56855469 168.79878906 184.18945312 168.36914062 C189.8729529 164.33267042 194.45341205 159.52130251 196.17578125 152.5703125 C197.22522569 143.84395382 196.31247138 136.82867899 191.17578125 129.5703125 C188.85814287 127.36047126 187.00181835 125.98333105 184.17578125 124.5703125 C184.17578125 123.9103125 184.17578125 123.2503125 184.17578125 122.5703125 C183.29921875 122.32152344 182.42265625 122.07273438 181.51953125 121.81640625 C178.00766343 120.50766112 175.63294882 118.91442024 172.67578125 116.6328125 C168.98286275 113.7941467 165.39714932 111.55063076 161.17578125 109.5703125 C161.17578125 108.9103125 161.17578125 108.2503125 161.17578125 107.5703125 C160.58667969 107.45429688 159.99757813 107.33828125 159.390625 107.21875 C157.0482393 106.53297218 155.66832091 105.66624342 153.73828125 104.1953125 C150.98376771 102.11185215 148.14502518 100.33521708 145.17578125 98.5703125 C143.19214061 97.30647395 141.21351234 96.03475423 139.23828125 94.7578125 C132.64730647 90.50793438 126.03945187 86.28477485 119.42578125 82.0703125 C117.96023804 81.13481567 117.96023804 81.13481567 116.46508789 80.18041992 C115.54977295 79.59752197 114.63445801 79.01462402 113.69140625 78.4140625 C112.86930664 77.89005859 112.04720703 77.36605469 111.20019531 76.82617188 C109.21422673 75.55141946 109.21422673 75.55141946 107.17578125 74.5703125 C107.17578125 73.9103125 107.17578125 73.2503125 107.17578125 72.5703125 C106.325 72.33183594 105.47421875 72.09335938 104.59765625 71.84765625 C100.79355437 70.42763192 97.72231191 68.44435246 94.42578125 66.1328125 C88.79073771 62.27863204 83.07804685 58.60669173 77.23828125 55.0703125 C76.47854004 54.60939209 75.71879883 54.14847168 74.93603516 53.67358398 C73.41436657 52.7505808 71.89255824 51.82780794 70.37060547 50.90527344 C58.30302752 43.56539399 46.4566181 35.88921506 34.62890625 28.17089844 C24.83050538 21.77775392 15.02005816 15.43239631 5.03125 9.33984375 C2.47845502 7.75787915 -0.02327275 6.12599069 -2.51171875 4.4453125 C-3.94881443 3.48637297 -5.38632172 2.52805002 -6.82421875 1.5703125 C-8.04044922 0.74466797 -8.04044922 0.74466797 -9.28125 -0.09765625 C-16.38288739 -4.69026661 -22.00640799 -6.23042298 -30.38671875 -4.8671875 C-37.31993158 -3.07327928 -42.89170416 1.67154061 -46.82421875 7.5703125 C-47.50388551 9.23172013 -48.1736078 10.89731291 -48.82421875 12.5703125 C-49.48421875 12.9003125 -50.14421875 13.2303125 -50.82421875 13.5703125 C-51.15421875 59.4403125 -51.48421875 105.3103125 -51.82421875 152.5703125 C-52.15421875 152.5703125 -52.48421875 152.5703125 -52.82421875 152.5703125 C-53.59490113 122.96857978 -54.0636137 93.37616385 -54.11938477 63.76416016 C-54.1284263 59.49058575 -54.14979148 55.21731757 -54.1809082 50.94384766 C-54.21939403 45.65291835 -54.23814453 40.3622654 -54.24266624 35.07120132 C-54.24748811 33.09301059 -54.25897355 31.11482286 -54.27770424 29.13671494 C-54.47988707 6.50492488 -54.47988707 6.50492488 -47.4921875 -2.40234375 C-32.34243673 -15.166307 -15.01893767 -11.77073059 0 0 Z " fill="#C3DC8C" transform="translate(99.82421875,37.4296875)"/>
<path d="M0 0 C8.30200973 -0.18618963 16.60313305 -0.32791801 24.90672112 -0.41449738 C28.76343931 -0.45607362 32.618719 -0.51236613 36.47460938 -0.60351562 C40.2030134 -0.69108971 43.93004324 -0.7384059 47.65939713 -0.75901794 C49.07480612 -0.7736861 50.49014833 -0.80233018 51.90496445 -0.84584045 C60.93883796 -1.11235622 66.34416165 -0.23396842 73.06518555 6.0295105 C73.70367432 6.67977203 74.34216309 7.33003357 75 8 C75.95132813 8.83789062 76.90265625 9.67578125 77.8828125 10.5390625 C78.62273437 11.22742188 79.36265625 11.91578125 80.125 12.625 C83.70645112 15.89624669 87.36188652 18.89303798 91.30859375 21.7109375 C93.04629105 23.03527955 94.56117165 24.35436758 96 26 C96 26.66 96 27.32 96 28 C88.54996609 28.23364469 81.10032006 28.41034493 73.64743614 28.51812172 C70.18484793 28.5699045 66.72479866 28.63988675 63.26367188 28.75439453 C35.89253294 29.63612719 35.89253294 29.63612719 26.96073914 21.90621948 C25.61275838 20.63288021 24.30444612 19.31790187 23 18 C21.65279332 16.9831783 20.28541403 15.99162033 18.88671875 15.046875 C17.24310536 13.86684487 15.59952558 12.68676761 13.95654297 11.50585938 C9.87804167 8.58854219 5.72761397 5.81508947 1.4765625 3.15625 C0.98929687 2.7746875 0.50203125 2.393125 0 2 C0 1.34 0 0.68 0 0 Z " fill="#B4D478" transform="translate(258,122)"/>
<path d="M0 0 C1.21370773 0.00565979 2.42741547 0.01131958 3.67790222 0.01715088 C7.54999419 0.03952058 11.42115699 0.08972118 15.29296875 0.140625 C17.9199085 0.16068909 20.54686277 0.17894001 23.17382812 0.1953125 C29.60969141 0.23938754 36.04501369 0.30630708 42.48046875 0.390625 C41.82046875 1.710625 41.16046875 3.030625 40.48046875 4.390625 C39.82046875 4.390625 39.16046875 4.390625 38.48046875 4.390625 C38.15046875 5.380625 37.82046875 6.370625 37.48046875 7.390625 C35.82489846 8.86860817 34.10600289 10.27644853 32.35546875 11.640625 C28.38738667 14.80277061 24.68841793 17.99559049 21.2109375 21.6875 C20.63988281 22.24953125 20.06882812 22.8115625 19.48046875 23.390625 C18.7330542 24.24068115 17.98563965 25.0907373 17.21557617 25.96655273 C12.30633676 29.99986365 6.00692609 29.00221646 -0.01171875 28.87890625 C-1.31279572 28.87183151 -2.61387268 28.86475677 -3.95437622 28.85746765 C-7.39730698 28.83846456 -10.83916683 28.78942536 -14.28167725 28.73394775 C-17.80091874 28.68260833 -21.32033494 28.65992255 -24.83984375 28.63476562 C-31.73351016 28.58129719 -38.62646915 28.49606811 -45.51953125 28.390625 C-44.24275151 24.56028577 -41.96110803 23.18763536 -38.83203125 20.890625 C-37.65042514 20.00342468 -36.46945831 19.11537244 -35.2890625 18.2265625 C-34.67240723 17.76475586 -34.05575195 17.30294922 -33.42041016 16.82714844 C-30.25276211 14.43330807 -27.13683925 11.97444078 -24.01953125 9.515625 C-23.44501221 9.06380859 -22.87049316 8.61199219 -22.27856445 8.14648438 C-18.76784504 5.39761148 -18.76784504 5.39761148 -15.60864258 2.26220703 C-10.66427245 -0.73340993 -5.6645195 -0.09933715 0 0 Z " fill="#769E45" transform="translate(308.51953125,215.609375)"/>
<path d="M0 0 C3.18502572 0.59126877 4.97031852 1.54431094 7.3828125 3.6875 C7.99253906 4.22117188 8.60226562 4.75484375 9.23046875 5.3046875 C10.16826172 6.14386719 10.16826172 6.14386719 11.125 7 C12.37610517 8.10586486 13.62864432 9.21011014 14.8828125 10.3125 C15.43340332 10.80363281 15.98399414 11.29476562 16.55126953 11.80078125 C18.00672803 13.09746176 18.00672803 13.09746176 20 14 C19.51594564 18.31180732 18.37995134 20.0589554 15.0625 22.8125 C14.35222656 23.41707031 13.64195312 24.02164063 12.91015625 24.64453125 C11 26 11 26 9 26 C8.505 27.485 8.505 27.485 8 29 C3.65714286 33 3.65714286 33 0 33 C-0.495 29.04 -0.495 29.04 -1 25 C-1.69935165 25.00222061 -2.39870331 25.00444122 -3.11924744 25.00672913 C-9.69704921 25.0267328 -16.27484254 25.04197452 -22.85266781 25.05181217 C-26.23471813 25.05703975 -29.6167434 25.06413511 -32.9987793 25.07543945 C-36.88329777 25.08834267 -40.76780597 25.09322924 -44.65234375 25.09765625 C-45.87211411 25.10281754 -47.09188446 25.10797882 -48.34861755 25.11329651 C-50.03024742 25.11340981 -50.03024742 25.11340981 -51.74584961 25.11352539 C-52.73846298 25.115746 -53.73107635 25.11796661 -54.75376892 25.12025452 C-57 25 -57 25 -58 24 C-58.10007008 21.17743509 -58.13875598 18.3847681 -58.125 15.5625 C-58.12886719 14.77294922 -58.13273437 13.98339844 -58.13671875 13.16992188 C-58.12663067 7.25326133 -58.12663067 7.25326133 -57 5 C-38.19 5 -19.38 5 0 5 C0 3.35 0 1.7 0 0 Z " fill="#94BA6B" transform="translate(468,220)"/>
<path d="M0 0 C5.48094366 -0.049467 10.96175713 -0.0857514 16.44287109 -0.10986328 C18.30715194 -0.11991593 20.17141703 -0.13356005 22.03564453 -0.15087891 C24.71651091 -0.17515953 27.39716866 -0.18649047 30.078125 -0.1953125 C30.91055725 -0.20563507 31.7429895 -0.21595764 32.60064697 -0.22659302 C39.74669236 -0.22797609 39.74669236 -0.22797609 43 2 C43 2.66 43 3.32 43 4 C43.99 4.33 44.98 4.66 46 5 C49.71574495 9.24656565 50.52733335 12.43703991 50.26171875 17.88671875 C49.73117263 22.17068069 48.41748087 25.29449431 45 28 C44.34 28 43.68 28 43 28 C42.505 29.485 42.505 29.485 42 31 C28.14 31 14.28 31 0 31 C-1.37262276 28.25475448 -1.1296881 26.03780705 -1.1328125 22.96875 C-1.13410156 21.76605469 -1.13539063 20.56335938 -1.13671875 19.32421875 C-1.13285156 18.06222656 -1.12898438 16.80023438 -1.125 15.5 C-1.12886719 14.23800781 -1.13273437 12.97601563 -1.13671875 11.67578125 C-1.13542969 10.47308594 -1.13414062 9.27039063 -1.1328125 8.03125 C-1.13168457 6.92330078 -1.13055664 5.81535156 -1.12939453 4.67382812 C-1 2 -1 2 0 0 Z " fill="#D3E9A4" transform="translate(351,80)"/>
<path d="M0 0 C1.83027098 -0.02150217 3.66044131 -0.05551205 5.49023438 -0.10253906 C23.82709055 -0.56956132 23.82709055 -0.56956132 29.45703125 4.71728516 C32.64106391 9.03575048 33.18206818 12.56955558 33.09594727 17.85424805 C32.44105307 22.08836596 30.56431934 24.26946851 27.70141602 27.4050293 C27.04141602 27.4050293 26.38141602 27.4050293 25.70141602 27.4050293 C25.70141602 28.0650293 25.70141602 28.7250293 25.70141602 29.4050293 C21.56516445 30.55789789 17.55430292 30.56692916 13.28735352 30.57299805 C12.47650299 30.57632645 11.66565247 30.57965485 10.83023071 30.58308411 C9.12063157 30.58813661 7.41102261 30.59049295 5.70141602 30.59033203 C3.07885724 30.59252725 0.4567134 30.61072416 -2.16577148 30.62963867 C-3.82722838 30.63257114 -5.48868727 30.63455692 -7.15014648 30.63549805 C-7.93660553 30.64268356 -8.72306458 30.64986908 -9.53335571 30.65727234 C-15.06974796 30.63386532 -15.06974796 30.63386532 -17.29858398 28.4050293 C-17.54150391 25.71533203 -17.54150391 25.71533203 -17.52905273 22.33862305 C-17.52711914 21.13141602 -17.52518555 19.92420898 -17.52319336 18.68041992 C-17.51094727 17.41391602 -17.49870117 16.14741211 -17.48608398 14.8425293 C-17.48543945 13.5721582 -17.48479492 12.30178711 -17.48413086 10.99291992 C-17.4190533 -2.53598208 -12.00325916 0.10595833 0 0 Z " fill="#7DA457" transform="translate(369.298583984375,253.594970703125)"/>
<path d="M0 0 C1.1099659 -0.01354271 1.1099659 -0.01354271 2.24235535 -0.02735901 C3.81004788 -0.04187764 5.37780123 -0.05075226 6.94555664 -0.05444336 C9.33650001 -0.06631209 11.72483833 -0.11545003 14.11523438 -0.16601562 C15.63931034 -0.1754833 17.16340214 -0.18271669 18.6875 -0.1875 C19.75494194 -0.21679848 19.75494194 -0.21679848 20.84394836 -0.24668884 C24.78387855 -0.21115419 26.39011434 0.24538516 29.47387695 2.78149414 C33.07873457 7.29320207 33.57684604 11.37233379 33.48046875 17.05859375 C32.33837986 21.0939745 30.77534706 22.75440655 27.54296875 25.37109375 C22.31625169 27.11333277 16.70950259 26.63608178 11.23681641 26.66625977 C9.05047773 26.68353442 6.86562844 26.72745068 4.6796875 26.77148438 C3.29037568 26.78160685 1.90105105 26.79012435 0.51171875 26.796875 C-0.75220703 26.81145752 -2.01613281 26.82604004 -3.31835938 26.84106445 C-6.45703125 26.37109375 -6.45703125 26.37109375 -8.36987305 24.63793945 C-9.58401111 22.10632663 -9.83068105 20.47304857 -9.8203125 17.67578125 C-9.81966797 16.79535156 -9.81902344 15.91492188 -9.81835938 15.0078125 C-9.80224609 14.09644531 -9.78613281 13.18507813 -9.76953125 12.24609375 C-9.77275391 11.32699219 -9.77597656 10.40789062 -9.77929688 9.4609375 C-9.71385376 1.35789011 -8.16890825 0.06103856 0 0 Z " fill="#D0E99E" transform="translate(446.45703125,103.62890625)"/>
<path d="M0 0 C1.30158051 0.02278015 1.30158051 0.02278015 2.62945557 0.04602051 C5.13722824 0.10831441 7.63913239 0.20731124 10.14453125 0.33203125 C10.90960495 0.36740494 11.67467865 0.40277863 12.4629364 0.43922424 C15.43011665 0.65151021 17.67422693 0.83706013 20.1652832 2.5378418 C21.88070982 5.30620522 21.58249367 7.98851253 21.5625 11.1875 C21.57410156 13.04375 21.57410156 13.04375 21.5859375 14.9375 C21.1875 18.1875 21.1875 18.1875 19.99369812 19.86933899 C17.53316261 21.66503457 15.92093216 21.54927225 12.88989258 21.52807617 C11.80899857 21.52784958 10.72810455 21.52762299 9.61445618 21.52738953 C7.86590584 21.50416374 7.86590584 21.50416374 6.08203125 21.48046875 C4.88768967 21.47622391 3.69334808 21.47197906 2.46281433 21.46760559 C-1.35835144 21.45078959 -5.17899316 21.41313093 -9 21.375 C-11.58788302 21.35995699 -14.17577429 21.34626792 -16.76367188 21.33398438 C-23.11346058 21.30087645 -29.46294286 21.25064762 -35.8125 21.1875 C-35.8125 14.77239291 -32.35861573 11.35883155 -28.20043945 6.72143555 C-20.00395419 -0.71914298 -10.4781835 -0.20509637 0 0 Z " fill="#749C49" transform="translate(379.8125,223.8125)"/>
<path d="M0 0 C7.57124035 -0.18587618 15.14224248 -0.32776424 22.71524906 -0.41449738 C26.23245748 -0.45614113 29.74809821 -0.51255548 33.2644043 -0.60351562 C37.31313545 -0.70758551 41.36023702 -0.74597669 45.41015625 -0.78125 C46.66458023 -0.82254028 47.91900421 -0.86383057 49.21144104 -0.90637207 C57.79308571 -0.91076392 57.79308571 -0.91076392 61.27633667 1.71777344 C63.03606835 3.72925869 64.50077074 5.79188878 66 8 C67.12180409 9.1285715 68.2666126 10.23493758 69.4375 11.3125 C72 14 72 14 72 17 C71.42019882 16.9297612 70.84039764 16.8595224 70.24302673 16.78715515 C63.39835741 16.02287063 56.63716654 15.83914735 49.75390625 15.83203125 C48.62097641 15.82870285 47.48804657 15.82537445 46.32078552 15.82194519 C43.94506229 15.81691377 41.56933207 15.81453568 39.19360352 15.81469727 C35.54887535 15.81249176 31.90444113 15.79424451 28.25976562 15.77539062 C25.94531353 15.77245976 23.63086001 15.77047291 21.31640625 15.76953125 C19.68053307 15.75875298 19.68053307 15.75875298 18.01161194 15.74775696 C17.00303635 15.75083359 15.99446075 15.75391022 14.95532227 15.75708008 C14.06837173 15.75565506 13.1814212 15.75423004 12.26759338 15.75276184 C9.71893729 15.85425205 9.71893729 15.85425205 7 18 C6.66226562 17.08476562 6.32453125 16.16953125 5.9765625 15.2265625 C5.30753906 13.44378906 5.30753906 13.44378906 4.625 11.625 C3.96371094 9.84996094 3.96371094 9.84996094 3.2890625 8.0390625 C2.2049658 4.95506554 2.2049658 4.95506554 0 3 C0 2.01 0 1.02 0 0 Z " fill="#9AC060" transform="translate(308,160)"/>
<path d="M0 0 C0.92250046 -0.00204437 1.84500092 -0.00408875 2.79545593 -0.00619507 C5.83828691 -0.00919809 8.88057345 0.00925827 11.92333984 0.02832031 C14.03892889 0.03137858 16.15451995 0.03325419 18.27011108 0.03399658 C22.70017217 0.03859647 27.13005117 0.05301198 31.56005859 0.07519531 C37.24425163 0.10351187 42.92830149 0.11441072 48.61255836 0.11887741 C52.97906939 0.12302966 57.34555136 0.13284498 61.71204758 0.1447525 C63.80846296 0.15045681 65.90488112 0.15521499 68.00130081 0.15901947 C70.92669862 0.16587826 73.85198231 0.17950814 76.77734375 0.1953125 C77.64702286 0.19643036 78.51670197 0.19754822 79.41273499 0.19869995 C82.77423251 0.22280646 85.54841798 0.28615886 88.75927734 1.35644531 C88.84619808 5.62715089 88.89964249 9.89762989 88.94677734 14.16894531 C88.97191406 15.38388672 88.99705078 16.59882813 89.02294922 17.85058594 C89.03745117 19.5956543 89.03745117 19.5956543 89.05224609 21.37597656 C89.07581177 22.98629761 89.07581177 22.98629761 89.09985352 24.62915039 C88.75927734 27.35644531 88.75927734 27.35644531 87.57848644 29.00435352 C85.07684067 30.8636531 83.41335809 30.7259142 80.31135559 30.71720886 C79.17973495 30.72133286 78.04811432 30.72545685 76.88220215 30.72970581 C75.63998901 30.71891998 74.39777588 30.70813416 73.11791992 30.69702148 C71.81050339 30.69745956 70.50308685 30.69789764 69.15605164 30.698349 C65.56944347 30.69921078 61.98313547 30.6815558 58.39659715 30.66062713 C54.64899095 30.64189056 50.9013781 30.64011228 47.1537323 30.6365509 C40.0564059 30.62722153 32.9592179 30.60259575 25.86195248 30.57250243 C17.78224965 30.53898612 9.70254024 30.5224794 1.62278521 30.50741613 C-14.99846514 30.47604691 -31.61957624 30.42326917 -48.24072266 30.35644531 C-46.50888648 26.56460968 -44.68352794 24.94510639 -41.24072266 22.54394531 C-40.25974609 21.85558594 -39.27876953 21.16722656 -38.26806641 20.45800781 C-37.26904297 19.76449219 -36.27001953 19.07097656 -35.24072266 18.35644531 C-34.31388672 17.68355469 -33.38705078 17.01066406 -32.43212891 16.31738281 C-31.56458984 15.69089844 -30.69705078 15.06441406 -29.80322266 14.41894531 C-29.02076172 13.85304688 -28.23830078 13.28714844 -27.43212891 12.70410156 C-25.32152913 11.40613914 -23.66257728 10.79226881 -21.24072266 10.35644531 C-21.24072266 11.01644531 -21.24072266 11.67644531 -21.24072266 12.35644531 C-23.07666016 13.83691406 -23.07666016 13.83691406 -25.61572266 15.54394531 C-26.42783203 16.094375 -27.23994141 16.64480469 -28.07666016 17.21191406 C-29.12080078 17.91960937 -30.16494141 18.62730469 -31.24072266 19.35644531 C-32.9748572 20.56556986 -34.7073244 21.77708783 -36.43847656 22.99047852 C-37.33805084 23.62081497 -38.23762512 24.25115143 -39.16445923 24.90058899 C-39.84962616 25.38102158 -40.53479309 25.86145416 -41.24072266 26.35644531 C-25.10767418 26.37978317 -8.97463116 26.39742886 7.1584301 26.40825748 C14.64892007 26.41341855 22.13939956 26.42045766 29.62988281 26.43188477 C36.15692658 26.44183737 42.68396277 26.44830012 49.21101391 26.45053381 C52.66852642 26.45183993 56.12601723 26.45491961 59.5835228 26.46217537 C63.43882409 26.47020065 67.29410396 26.47043608 71.14941406 26.4699707 C72.8778656 26.47536362 72.8778656 26.47536362 74.64123535 26.48086548 C75.68733978 26.47949081 76.73344421 26.47811615 77.81124878 26.47669983 C78.72382383 26.47762162 79.63639889 26.47854342 80.57662773 26.47949314 C82.8054777 26.49841215 82.8054777 26.49841215 84.75927734 25.35644531 C84.75927734 18.42644531 84.75927734 11.49644531 84.75927734 4.35644531 C74.30959594 4.33374532 63.85993124 4.31544458 53.41023064 4.30463314 C48.55668081 4.29944109 43.7031489 4.2924112 38.84960938 4.28100586 C34.15523226 4.27004507 29.46087225 4.26414087 24.76648331 4.26156807 C22.98617407 4.25973737 21.20586565 4.25616318 19.42556381 4.25071526 C-0.14150815 2.82519476 -0.14150815 2.82519476 -17.24072266 9.35644531 C-17.90072266 9.02644531 -18.56072266 8.69644531 -19.24072266 8.35644531 C-12.9253448 1.68018873 -8.97473633 -0.09553757 0 0 Z " fill="#87A963" transform="translate(250.24072265625,253.6435546875)"/>
<path d="M0 0 C0.78567676 2.77931667 1.12403057 5.24064464 1.12025452 8.12554932 C1.12162918 8.93880676 1.12300385 9.75206421 1.12442017 10.58996582 C1.12082489 11.47325562 1.11722961 12.35654541 1.11352539 13.26660156 C1.11367142 14.20352844 1.11381744 15.14045532 1.1139679 16.10577393 C1.11327157 19.20074788 1.10549223 22.29566156 1.09765625 25.390625 C1.09579108 27.53725146 1.09436764 29.68387834 1.09336853 31.83050537 C1.08955118 37.47921932 1.07972754 43.12790754 1.06866455 48.77661133 C1.05663471 55.55477364 1.05204446 62.33294456 1.04621124 69.1111145 C1.0365154 79.40742756 1.01735334 89.70368417 1 100 C1.33 68.98 1.66 37.96 2 6 C2.66 5.67 3.32 5.34 4 5 C4.06136341 24.04861893 3.99805314 43.09308787 3.78125 62.140625 C3.75868654 64.13982136 3.73612389 66.13901773 3.71356201 68.13821411 C3.67830936 71.25645547 3.64305445 74.37469679 3.60770798 77.49293709 C3.1302955 119.96125459 2.84606691 162.4309469 2.77160454 204.90183783 C2.77035639 205.61272133 2.76910824 206.32360484 2.76782227 207.05603027 C2.76658922 207.76479262 2.76535618 208.47355496 2.76408577 209.20379496 C2.75467156 214.19143913 2.73732518 219.17901731 2.71655273 224.16662598 C2.68865206 230.90742621 2.67684385 237.64806851 2.67592621 244.38893509 C2.67325328 246.87970682 2.66551422 249.37047895 2.6523819 251.8612175 C2.63537027 255.27954422 2.6371064 258.69737101 2.64355469 262.11572266 C2.63433739 263.1082114 2.62512009 264.10070015 2.61562347 265.12326431 C2.65969806 272.44971391 3.4945947 278.31979898 8.6875 283.875 C9.450625 284.57625 10.21375 285.2775 11 286 C11 286.66 11 287.32 11 288 C11.9590625 288.4021875 11.9590625 288.4021875 12.9375 288.8125 C15 290 15 290 16 293 C10.50884427 291.92855498 7.85620576 289.26420871 4.4140625 285.109375 C2.63046714 282.44876314 2.07974441 280.18977625 2 277 C1.34 277 0.68 277 0 277 C-1.19122048 274.61755903 -1.12531715 273.17343259 -1.12584114 270.51435947 C-1.12844889 269.56474388 -1.13105664 268.61512828 -1.13374341 267.63673645 C-1.13151268 266.58627056 -1.12928196 265.53580466 -1.12698364 264.45350647 C-1.12854363 263.34318808 -1.13010362 262.23286968 -1.13171089 261.08890527 C-1.13572108 257.3431925 -1.13253114 253.59751977 -1.12939453 249.85180664 C-1.13074857 247.17660909 -1.13249215 244.50141436 -1.13470459 241.82621765 C-1.13916049 235.29893415 -1.13818657 228.77166212 -1.13529195 222.24437816 C-1.13303702 216.94076955 -1.13272579 211.63716417 -1.13381577 206.33355522 C-1.133969 205.57979411 -1.13412223 204.826033 -1.13428011 204.04943065 C-1.13459982 202.51834691 -1.13492403 200.98726317 -1.1352527 199.45617943 C-1.13810701 185.08538344 -1.13482133 170.71459382 -1.12945233 156.34379887 C-1.12498525 144.00499358 -1.12575954 131.6661977 -1.13037109 119.32739258 C-1.13571927 105.01088968 -1.13783137 90.69439238 -1.13475883 76.37788862 C-1.13444027 74.8520126 -1.1341259 73.32613657 -1.13381577 71.80026054 C-1.13366149 71.04943466 -1.13350721 70.29860878 -1.13334826 69.5250306 C-1.13248377 64.22646926 -1.13394455 58.92791146 -1.13629532 53.62935066 C-1.13909625 47.1739941 -1.13834886 40.71864969 -1.13301457 34.26329453 C-1.1303814 30.96779233 -1.1299018 27.6723147 -1.13266373 24.37681198 C-1.13537902 20.80901319 -1.13198934 17.24127224 -1.12698364 13.67347717 C-1.12921436 12.625242 -1.13144509 11.57700683 -1.13374341 10.49700695 C-1.13113566 9.54478361 -1.12852791 8.59256026 -1.12584114 7.61148167 C-1.12567879 6.78743353 -1.12551644 5.9633854 -1.12534916 5.11436611 C-1 3 -1 3 0 0 Z " fill="#92A96C" transform="translate(46,45)"/>
<path d="M0 0 C1.17691406 -0.04576172 2.35382813 -0.09152344 3.56640625 -0.13867188 C13.36276014 -0.26539636 13.36276014 -0.26539636 17.66796875 3.1484375 C19.60009763 5.18059731 20.33999682 6.32718192 21.19921875 9.03515625 C20.90341393 14.36809451 20.52045254 17.64737196 16.375 21.4375 C12.89775029 23.75566647 11.53042457 23.68375749 7.4296875 23.66796875 C6.27082031 23.66603516 5.11195313 23.66410156 3.91796875 23.66210938 C2.70753906 23.64986328 1.49710937 23.63761719 0.25 23.625 C-0.96816406 23.62435547 -2.18632812 23.62371094 -3.44140625 23.62304688 C-12.48482143 23.57767857 -12.48482143 23.57767857 -13.625 22.4375 C-13.72399523 20.88794441 -13.75579524 19.33396327 -13.7578125 17.78125 C-13.75910156 16.84152344 -13.76039063 15.90179688 -13.76171875 14.93359375 C-13.75785156 13.94488281 -13.75398438 12.95617187 -13.75 11.9375 C-13.75386719 10.94878906 -13.75773437 9.96007812 -13.76171875 8.94140625 C-13.76042969 8.00167969 -13.75914062 7.06195313 -13.7578125 6.09375 C-13.75668457 5.22556641 -13.75555664 4.35738281 -13.75439453 3.46289062 C-13.40560501 -1.99665255 -4.09445233 0.06376967 0 0 Z " fill="#ABCE6D" transform="translate(405.625,123.5625)"/>
<path d="M0 0 C1.21751953 0.02255859 2.43503906 0.04511719 3.68945312 0.06835938 C6.69005482 0.1271947 9.68814797 0.2093586 12.6875 0.3125 C14.27446844 3.48643689 13.8306447 6.89424205 13.8125 10.375 C13.81830078 11.49358398 13.81830078 11.49358398 13.82421875 12.63476562 C13.81413501 18.18586499 13.81413501 18.18586499 12.6875 19.3125 C9.73044679 19.40118299 6.79684944 19.42770296 3.83984375 19.41015625 C2.51020348 19.40803383 2.51020348 19.40803383 1.15370178 19.40586853 C-1.68923254 19.40025215 -4.53208931 19.38769691 -7.375 19.375 C-9.29752491 19.36998711 -11.22005104 19.36542384 -13.14257812 19.36132812 C-17.86591549 19.35027741 -22.58919458 19.33300183 -27.3125 19.3125 C-26.02461129 15.22670005 -24.92430993 12.407736 -22 9.25 C-21.42636719 8.61964844 -20.85273438 7.98929688 -20.26171875 7.33984375 C-19.29685547 6.33630859 -19.29685547 6.33630859 -18.3125 5.3125 C-17.68601562 4.41273438 -17.05953125 3.51296875 -16.4140625 2.5859375 C-11.38195378 -1.10258552 -6.05421017 -0.21168567 0 0 Z " fill="#86AD53" transform="translate(402.3125,195.6875)"/>
<path d="M0 0 C5.10863896 -0.0246501 10.21724359 -0.04283607 15.32592773 -0.05493164 C17.06519168 -0.05997204 18.80445136 -0.0668043 20.54370117 -0.07543945 C23.03825937 -0.08751792 25.53276173 -0.09323108 28.02734375 -0.09765625 C28.80963852 -0.10281754 29.59193329 -0.10797882 30.39793396 -0.11329651 C32.26567114 -0.11349226 34.13329204 -0.06199694 36 0 C37.55606751 1.55606751 37.12970769 3.05957371 37.1328125 5.21875 C37.13474609 6.49298828 37.13474609 6.49298828 37.13671875 7.79296875 C37.13285156 8.68628906 37.12898438 9.57960937 37.125 10.5 C37.13080078 11.83998047 37.13080078 11.83998047 37.13671875 13.20703125 C37.13542969 14.05652344 37.13414062 14.90601563 37.1328125 15.78125 C37.13168457 16.56564453 37.13055664 17.35003906 37.12939453 18.15820312 C37 20 37 20 36 21 C21.83795221 22.83611668 21.83795221 22.83611668 15.82421875 18.9453125 C13.3449758 16.40963762 11.17377237 13.79893623 9 11 C6.61181337 8.5441896 4.17573885 6.16623945 1.6875 3.8125 C0 2 0 2 0 0 Z " fill="#B5D778" transform="translate(345,124)"/>
<path d="M0 0 C1.00289063 -0.02900391 2.00578125 -0.05800781 3.0390625 -0.08789062 C10.47992386 -0.15203598 10.47992386 -0.15203598 14.390625 2.20703125 C16.93711063 5.09055174 17.44065292 6.79165347 17.5625 10.5625 C17.59988281 11.31015625 17.63726562 12.0578125 17.67578125 12.828125 C17.00815176 16.72365123 16.05737689 18.47676577 13.25 21.3125 C9.35922869 22.11954364 5.58060568 21.96724252 1.625 21.8125 C0.5628125 21.8021875 -0.499375 21.791875 -1.59375 21.78125 C-9.44099026 21.62150974 -9.44099026 21.62150974 -11.75 19.3125 C-11.99291992 17.44897461 -11.99291992 17.44897461 -11.98046875 15.21484375 C-11.97853516 14.41369141 -11.97660156 13.61253906 -11.97460938 12.78710938 C-11.96236328 11.94986328 -11.95011719 11.11261719 -11.9375 10.25 C-11.93685547 9.40888672 -11.93621094 8.56777344 -11.93554688 7.70117188 C-11.86688915 -1.76596615 -8.3840569 0.07959548 0 0 Z " fill="#97BC66" transform="translate(435.75,194.6875)"/>
<path d="M0 0 C3.6074876 3.6074876 3.19171523 7.37350773 3.25 12.25 C3.20273869 21.98237091 0.36747406 27.40418632 -6.2265625 34.45703125 C-10.7781298 38.63036972 -15.90207499 41.73524522 -21.17382812 44.89550781 C-24.13234068 46.68485418 -27.03325663 48.56180862 -29.9375 50.4375 C-30.51274414 50.80697754 -31.08798828 51.17645508 -31.68066406 51.55712891 C-37.87312611 55.54143954 -43.99173444 59.6352843 -50.10888672 63.73388672 C-53.85618593 66.24272918 -57.61011589 68.74164515 -61.36376953 71.2409668 C-64.5558504 73.36721162 -67.74402641 75.4989531 -70.92578125 77.640625 C-76.4931327 81.38392533 -82.06947227 85.11758925 -87.75 88.6875 C-88.50796875 89.16574219 -89.2659375 89.64398438 -90.046875 90.13671875 C-92 91 -92 91 -95 90 C-90.15610415 85.58667267 -85.13146667 82.04694201 -79.55078125 78.61328125 C-77.004879 77.05918337 -77.004879 77.05918337 -74.79296875 75.29296875 C-73 74 -73 74 -71 74 C-71 73.34 -71 72.68 -71 72 C-69.13256509 70.7168915 -67.20211328 69.52518881 -65.25 68.375 C-64.04833121 67.65686533 -62.84783479 66.93676577 -61.6484375 66.21484375 C-61.03709961 65.8472998 -60.42576172 65.47975586 -59.79589844 65.10107422 C-56.09656681 62.83299569 -52.52297881 60.37434929 -48.92578125 57.94921875 C-45.1549135 55.4369851 -41.3209931 53.03205001 -37.47265625 50.640625 C-34.9547865 49.0302085 -34.9547865 49.0302085 -32.62109375 47.046875 C-30.13550757 45.10582111 -27.58667408 43.58566076 -24.83349609 42.05810547 C-21.69552892 40.24719339 -18.76160163 38.1625691 -15.8125 36.0625 C-15.20986328 35.64548828 -14.60722656 35.22847656 -13.98632812 34.79882812 C-7.4853084 30.18174825 -3.33638092 24.6575164 -1 17 C-0.19662145 11.33651318 0 5.71417594 0 0 Z " fill="#B5D287" transform="translate(298,171)"/>
<path d="M0 0 C-0.4640625 1.1446875 -0.4640625 1.1446875 -0.9375 2.3125 C-2.9332518 7.36057807 -3.16054367 11.68709789 -3.17700195 17.05786133 C-3.18357315 17.98500443 -3.19014435 18.91214752 -3.19691467 19.86738586 C-3.21664313 22.93893513 -3.22830872 26.01043554 -3.23828125 29.08203125 C-3.24235678 30.13091711 -3.2464323 31.17980297 -3.25063133 32.26047325 C-3.27148922 37.811098 -3.28579269 43.36169805 -3.29516602 48.91235352 C-3.30623539 54.64578093 -3.34064243 60.37882077 -3.38033772 66.11211109 C-3.4064778 70.52077457 -3.4148555 74.92934529 -3.41844749 79.33807945 C-3.42331946 81.45158191 -3.43495072 83.56508005 -3.45348549 85.67850685 C-3.47782309 88.63730263 -3.47692168 91.59508993 -3.4699707 94.55395508 C-3.48278076 95.42534119 -3.49559082 96.29672729 -3.50878906 97.19451904 C-3.46233735 102.62431627 -2.59484142 105.68297682 1 110 C6.34507348 114.94419297 10.49187716 115.16390346 17.515625 115.1015625 C20.40467442 114.98345671 23.17144446 114.59548538 26 114 C24 117 24 117 22.296875 117.66015625 C15.18269981 118.7127638 7.44218034 119.77702893 1.375 115.3125 C-2.69110013 111.62079453 -6.7275352 107.85957567 -7.13422108 102.09870338 C-7.13849456 101.37790281 -7.14276804 100.65710224 -7.14717102 99.91445923 C-7.15432632 99.08455978 -7.16148163 98.25466034 -7.16885376 97.39961243 C-7.17154266 96.49253036 -7.17423157 95.5854483 -7.17700195 94.65087891 C-7.18357315 93.6928688 -7.19014435 92.7348587 -7.19691467 91.74781799 C-7.21664368 88.57406539 -7.2283081 85.40036005 -7.23828125 82.2265625 C-7.24235678 81.1433308 -7.2464323 80.06009911 -7.25063133 78.94404221 C-7.27148824 73.21302226 -7.28579283 67.48202625 -7.29516602 61.75097656 C-7.3062425 55.82688601 -7.34065802 49.90316982 -7.38033772 43.97921181 C-7.40645581 39.42733044 -7.41485348 34.87553904 -7.41844749 30.32358932 C-7.42332421 28.13948405 -7.43496888 25.95538308 -7.45348549 23.77135086 C-7.47777902 20.71656649 -7.47692987 17.66276113 -7.4699707 14.60791016 C-7.48278076 13.70487656 -7.49559082 12.80184296 -7.50878906 11.8714447 C-7.4744277 7.73679298 -7.31186163 5.52496841 -5.15812683 1.89950562 C-3 0 -3 0 0 0 Z " fill="#829C61" transform="translate(112,128)"/>
<path d="M0 0 C-1.24360372 3.73081117 -2.3100873 4.07257453 -5.625 6.0625 C-10.3325263 8.95802658 -14.96874973 11.92879294 -19.5625 15 C-20.20268066 15.42692139 -20.84286133 15.85384277 -21.50244141 16.29370117 C-25.20476609 18.77123582 -28.86614027 21.29755916 -32.5 23.875 C-35.1500648 25.75103597 -37.77960427 27.49944629 -40.625 29.0625 C-43.29663252 30.59621497 -45.57292338 32.1355216 -48 34 C-50.90093189 36.22423267 -53.82908694 38.12195843 -57.0390625 39.88671875 C-65.64084 44.77019801 -73.78904103 50.4967025 -82 56 C-84.74906748 57.83473303 -87.49954925 59.6673415 -90.25 61.5 C-91.54689904 62.36454727 -92.84377613 63.22912747 -94.140625 64.09375 C-95.08421875 64.7228125 -96.0278125 65.351875 -97 66 C-97.66 65.67 -98.32 65.34 -99 65 C-97.84307967 61.52923902 -97.09150612 61.09527253 -94.140625 59.1171875 C-93.35429688 58.58996094 -92.56796875 58.06273437 -91.7578125 57.51953125 C-90.93023437 56.97683594 -90.10265625 56.43414062 -89.25 55.875 C-88.03183594 55.04935547 -88.03183594 55.04935547 -86.7890625 54.20703125 C-85.99757813 53.68238281 -85.20609375 53.15773438 -84.390625 52.6171875 C-83.66907227 52.13878418 -82.94751953 51.66038086 -82.20410156 51.16748047 C-79.80011397 49.89412329 -77.67821306 49.40484616 -75 49 C-75 48.34 -75 47.68 -75 47 C-72.09451118 44.95830515 -70.59857954 44 -67 44 C-67 43.34 -67 42.68 -67 42 C-64.4385343 39.70351351 -63.52032428 39 -60 39 C-60 38.34 -60 37.68 -60 37 C-57.57028885 35.35105211 -55.14206358 33.81736064 -52.625 32.3125 C-47.06442249 28.91949141 -41.64982576 25.42915346 -36.34765625 21.640625 C-32.92779378 19.25070447 -29.39611843 17.04854491 -25.8671875 14.82421875 C-19.44941457 10.7409763 -13.06810053 6.58997348 -7 2 C-4 0 -4 0 0 0 Z " fill="#9CC173" transform="translate(202,263)"/>
<path d="M0 0 C0.85000076 -0.00807175 1.70000153 -0.01614349 2.57575989 -0.02445984 C4.38064524 -0.03832059 6.18555702 -0.0490338 7.99047852 -0.05688477 C10.74091074 -0.07404023 13.49012312 -0.11790013 16.24023438 -0.16210938 C17.99348074 -0.17224108 19.74673734 -0.18075569 21.5 -0.1875 C22.31897263 -0.20500809 23.13794525 -0.22251617 23.98173523 -0.24055481 C29.32415594 -0.2204428 32.33682261 0.69985403 36.58203125 4.23828125 C38.01953125 6.30078125 38.01953125 6.30078125 38.58203125 8.23828125 C38.25203125 9.22828125 37.92203125 10.21828125 37.58203125 11.23828125 C36.34505208 9.70833333 35.10807292 8.17838542 33.87109375 6.6484375 C31.58430975 4.14683439 30.35772889 4.22588552 26.86669922 4.03295898 C25.26932572 3.99107311 23.67181025 3.95440071 22.07421875 3.921875 C21.23359894 3.9010939 20.39297913 3.88031281 19.52688599 3.85890198 C16.8370189 3.79342686 14.14705282 3.73453105 11.45703125 3.67578125 C9.63540636 3.63259409 7.81379154 3.58897973 5.9921875 3.54492188 C1.52223548 3.43694218 -2.94778983 3.33785396 -7.41796875 3.23828125 C-7.08796875 10.82828125 -6.75796875 18.41828125 -6.41796875 26.23828125 C12.39203125 26.73328125 12.39203125 26.73328125 31.58203125 27.23828125 C31.58203125 27.89828125 31.58203125 28.55828125 31.58203125 29.23828125 C28.37503337 30.84178019 24.88601916 30.40130485 21.36328125 30.40625 C20.14276062 30.4112426 20.14276062 30.4112426 18.89758301 30.41633606 C17.17603115 30.421402 15.45446946 30.42374449 13.73291016 30.42358398 C11.09261002 30.42577248 8.45272628 30.44393692 5.8125 30.46289062 C4.14192852 30.46582416 2.47135504 30.46780922 0.80078125 30.46875 C0.0080481 30.47593552 -0.78468506 30.48312103 -1.60144043 30.49052429 C-7.18914193 30.46710807 -7.18914193 30.46710807 -9.41796875 28.23828125 C-9.66088867 25.54858398 -9.66088867 25.54858398 -9.6484375 22.171875 C-9.64650391 20.96466797 -9.64457031 19.75746094 -9.64257812 18.51367188 C-9.63033203 17.24716797 -9.61808594 15.98066406 -9.60546875 14.67578125 C-9.60482422 13.40541016 -9.60417969 12.13503906 -9.60351562 10.82617188 C-9.55184827 0.08510359 -9.55184827 0.08510359 0 0 Z " fill="#82A360" transform="translate(361.41796875,253.76171875)"/>
<path d="M0 0 C0.8713559 0.01164185 1.74271179 0.02328369 2.64047241 0.03527832 C5.16229092 0.08531428 7.67923255 0.16991486 10.19921875 0.27734375 C11.35635376 0.32087227 11.35635376 0.32087227 12.53686523 0.36528015 C15.52380063 0.55047166 17.78274177 0.70376608 20.296875 2.40625 C22.00676375 5.19468396 21.6681563 7.91483489 21.625 11.125 C21.62113281 12.37410156 21.61726563 13.62320313 21.61328125 14.91015625 C21.3125 18.0625 21.3125 18.0625 19.3125 20.0625 C17.24972534 20.30300903 17.24972534 20.30300903 14.67919922 20.28955078 C13.71835419 20.28939972 12.75750916 20.28924866 11.76754761 20.28909302 C10.72792877 20.27877045 9.68830994 20.26844788 8.6171875 20.2578125 C7.55460724 20.2549826 6.49202698 20.25215271 5.39724731 20.24923706 C1.99388501 20.23801639 -1.40921686 20.21290837 -4.8125 20.1875 C-7.11588162 20.17747264 -9.41926736 20.16834637 -11.72265625 20.16015625 C-17.37769345 20.13807093 -23.03257813 20.10457489 -28.6875 20.0625 C-25.62825228 18.02300152 -24.96163087 17.80786865 -21.50732422 17.75952148 C-20.25119827 17.73455849 -20.25119827 17.73455849 -18.96969604 17.70909119 C-17.61957932 17.69646996 -17.61957932 17.69646996 -16.2421875 17.68359375 C-15.31657013 17.66659927 -14.39095276 17.6496048 -13.43728638 17.63209534 C-10.47909362 17.57893015 -7.52091538 17.53864229 -4.5625 17.5 C-1.59701431 17.45612903 1.36836039 17.4094914 4.33370972 17.35719299 C6.17991828 17.32513832 8.02622535 17.29827905 9.87258911 17.27696228 C13.91533744 17.61749714 13.91533744 17.61749714 17.3125 16.0625 C17.6425 12.1025 17.9725 8.1425 18.3125 4.0625 C5.7725 4.0625 -6.7675 4.0625 -19.6875 4.0625 C-20.0175 5.0525 -20.3475 6.0425 -20.6875 7.0625 C-22.12853232 8.30702791 -23.57506435 9.54669377 -25.06640625 10.73046875 C-26.92965145 12.21738114 -26.92965145 12.21738114 -29.375 14.75 C-31.6875 17.0625 -31.6875 17.0625 -34.6875 19.0625 C-33.15188402 11.96428268 -28.77057644 6.4236067 -22.83203125 2.38525391 C-15.67600482 -0.62494417 -7.64603993 -0.12072648 0 0 Z " fill="#7F9F5F" transform="translate(379.6875,223.9375)"/>
<path d="M0 0 C1.20946289 0.00848969 2.41892578 0.01697937 3.66503906 0.02572632 C7.50678683 0.05916279 11.34639261 0.13443292 15.1875 0.2109375 C17.80075082 0.2410493 20.41403472 0.26842295 23.02734375 0.29296875 C29.41478641 0.35892266 35.80099014 0.45917693 42.1875 0.5859375 C41.5275 1.9059375 40.8675 3.2259375 40.1875 4.5859375 C39.5275 4.5859375 38.8675 4.5859375 38.1875 4.5859375 C37.8575 5.5759375 37.5275 6.5659375 37.1875 7.5859375 C35.44981598 9.14815506 33.64836782 10.64037229 31.8125 12.0859375 C27.99357953 15.06754121 27.99357953 15.06754121 24.4609375 18.3671875 C23.1875 19.5859375 23.1875 19.5859375 21.1875 19.5859375 C22.77311638 15.73000676 25.25259954 13.25377459 28.1875 10.3359375 C29.5178125 8.99789062 29.5178125 8.99789062 30.875 7.6328125 C33.1875 5.5859375 33.1875 5.5859375 35.1875 5.5859375 C35.1875 4.9259375 35.1875 4.2659375 35.1875 3.5859375 C34.60597168 3.61623047 34.02444336 3.64652344 33.42529297 3.67773438 C30.63794695 3.81952854 27.85032631 3.95391415 25.0625 4.0859375 C24.03455322 4.13508301 23.00660645 4.18422852 21.94750977 4.23486328 C13.74755016 4.59380302 5.57665065 4.63501895 -2.62744141 4.37304688 C-7.82637285 4.28305596 -11.30274421 4.67573572 -15.8125 7.5859375 C-16.451875 8.2253125 -17.09125 8.8646875 -17.75 9.5234375 C-19.93506153 11.70849903 -22.22682893 13.0354701 -24.9296875 14.50390625 C-28.05854319 16.30202456 -30.90616427 18.45067043 -33.8125 20.5859375 C-33.8125 19.5959375 -33.8125 18.6059375 -33.8125 17.5859375 C-31.85734082 15.6874064 -29.92371483 13.98151749 -27.8125 12.2734375 C-27.25949219 11.81259766 -26.70648438 11.35175781 -26.13671875 10.87695312 C-25.01414812 9.94921947 -23.87956543 9.03581095 -22.73291016 8.13801575 C-20.81469165 6.63050513 -20.81469165 6.63050513 -19.15893555 5.01213074 C-13.1645849 -0.29821446 -7.74976748 -0.20657537 0 0 Z " fill="#86A95B" transform="translate(308.8125,215.4140625)"/>
<path d="M0 0 C1.09796402 0.00703949 2.19592804 0.01407898 3.3271637 0.02133179 C4.53197388 0.0342778 5.73678406 0.04722382 6.97810364 0.06056213 C8.88070702 0.07497345 8.88070702 0.07497345 10.82174683 0.0896759 C14.3008471 0.11614437 17.77986281 0.14892641 21.25889754 0.1828258 C24.89438034 0.21718124 28.52990843 0.24575279 32.16543579 0.27493286 C39.05023943 0.33107427 45.93498634 0.39243171 52.8197282 0.4556542 C60.65758389 0.52737582 68.495485 0.59329622 76.33339536 0.65872467 C92.45696759 0.79344946 108.58046696 0.93547467 124.70393372 1.08229065 C124.70393372 1.74229065 124.70393372 2.40229065 124.70393372 3.08229065 C80.81393372 3.08229065 36.92393372 3.08229065 -8.29606628 3.08229065 C-8.29606628 2.42229065 -8.29606628 1.76229065 -8.29606628 1.08229065 C-5.22900393 0.05993653 -3.2085767 -0.02784686 0 0 Z " fill="#9DBE76" transform="translate(210.2960662841797,280.91770935058594)"/>
<path d="M0 0 C0.33 0 0.66 0 1 0 C1.15448952 5.33311748 1.29745404 10.66648879 1.4375 16 C1.46056213 16.85737762 1.48362427 17.71475525 1.50738525 18.59811401 C1.84631716 31.41087259 2.04875589 44.22184398 2.16163063 57.03828812 C2.18360274 59.4736527 2.20749919 61.90899049 2.23210144 64.34432983 C2.24430017 65.55574426 2.24430017 65.55574426 2.25674534 66.7916317 C2.27325743 68.42791502 2.28984067 70.06419762 2.30649471 71.70047951 C2.35497065 76.5925864 2.39004583 81.48458124 2.41624928 86.3768549 C2.43593248 89.48350669 2.46775918 92.58995468 2.50256538 95.69647026 C2.51630687 97.15388494 2.5249387 98.61135819 2.52805901 100.0688343 C2.38635633 113.0230987 2.38635633 113.0230987 8.6875 123.875 C9.8321875 124.926875 9.8321875 124.926875 11 126 C11 126.66 11 127.32 11 128 C11.9590625 128.4021875 11.9590625 128.4021875 12.9375 128.8125 C15 130 15 130 16 133 C10.71882033 131.96952592 7.9092273 129.5603795 4.64686298 125.47839832 C-0.25744194 118.09780794 -0.43242441 109.05147797 -0.34057617 100.4699707 C-0.34101425 99.37596451 -0.34145233 98.28195831 -0.34190369 97.15480042 C-0.33983201 93.57827211 -0.31657758 90.00222655 -0.29296875 86.42578125 C-0.28736704 83.93043778 -0.28309966 81.435091 -0.28010559 78.93974304 C-0.2687022 72.4016494 -0.23927387 65.86375863 -0.20599365 59.32574463 C-0.17355226 52.64233339 -0.16157944 45.95885867 -0.14648438 39.27539062 C-0.1143998 26.18350766 -0.06384249 13.09176467 0 0 Z " fill="#A4C17F" transform="translate(46,205)"/>
<path d="M0 0 C7.6580332 -0.06943717 15.31603387 -0.12277913 22.97430992 -0.15543652 C26.53018671 -0.17110864 30.08584852 -0.19237444 33.64160156 -0.22631836 C37.72723482 -0.26507759 41.81264141 -0.27969633 45.8984375 -0.29296875 C47.17866791 -0.30845261 48.45889832 -0.32393646 49.77792358 -0.33988953 C50.95899689 -0.34011612 52.14007019 -0.34034271 53.35693359 -0.34057617 C54.92246475 -0.35056892 54.92246475 -0.35056892 56.5196228 -0.36076355 C57.33814728 -0.24171158 58.15667175 -0.12265961 59 0 C59.66 0.99 60.32 1.98 61 3 C60.67 3.99 60.34 4.98 60 6 C59.34 5.34 58.68 4.68 58 4 C55.45240753 3.66814656 55.45240753 3.66814656 52.44873047 3.68115234 C51.28767792 3.66128265 50.12662537 3.64141296 48.9303894 3.62094116 C47.04285446 3.60361435 47.04285446 3.60361435 45.1171875 3.5859375 C43.83264679 3.56657135 42.54810608 3.5472052 41.22463989 3.5272522 C37.80852465 3.47586059 34.39236993 3.43627286 30.97607422 3.39910889 C27.49046001 3.35911302 24.00501097 3.30800062 20.51953125 3.2578125 C13.6798081 3.16097025 6.83997904 3.0765922 0 3 C0 2.01 0 1.02 0 0 Z " fill="#A5C76F" transform="translate(308,160)"/>
<path d="M0 0 C-1.07401108 2.91517292 -1.77810176 4.77810176 -4 7 C-4.32440402 9.29769419 -4.32440402 9.29769419 -4.30297852 11.99584961 C-4.31965576 13.04505081 -4.33633301 14.09425201 -4.35351562 15.17524719 C-4.36189453 16.32268906 -4.37027344 17.47013092 -4.37890625 18.65234375 C-4.3955835 19.84381516 -4.41226074 21.03528656 -4.42944336 22.26286316 C-4.48240828 26.15435022 -4.52228643 30.04586227 -4.5625 33.9375 C-4.61425058 37.91457035 -4.66967053 41.89157734 -4.72557068 45.86859131 C-4.76269231 48.51103324 -4.7987945 51.15348969 -4.83387756 53.79595947 C-4.98045161 64.57564853 -5.22967147 75.34958422 -5.5625 86.125 C-5.59599045 87.22677078 -5.59599045 87.22677078 -5.63015747 88.35079956 C-5.74855105 92.23403157 -5.8713968 96.117093 -6 100 C-6.33 100 -6.66 100 -7 100 C-7.09266202 87.6999567 -7.16374593 75.39999637 -7.20724869 63.09967518 C-7.22812739 57.38818347 -7.25645066 51.67693048 -7.30175781 45.96557617 C-7.34520478 40.45425252 -7.36913497 34.94315855 -7.37950897 29.43167686 C-7.38690235 27.32850211 -7.40133981 25.22533999 -7.42292023 23.12226295 C-7.4519385 20.17734187 -7.45595661 17.23337103 -7.45410156 14.28833008 C-7.46848267 13.4179863 -7.48286377 12.54764252 -7.49768066 11.65092468 C-7.46997227 7.58829585 -7.2879469 5.48184874 -5.15911865 1.91947937 C-3 0 -3 0 0 0 Z " fill="#B0D17F" transform="translate(112,128)"/>
<path d="M0 0 C0 3 0 3 -1.63311768 5.15911865 C-4.60576707 7.47114522 -6.13491936 7.48602633 -9.87011719 7.45410156 C-11.05103943 7.45379944 -12.23196167 7.45349731 -13.44866943 7.45318604 C-14.71857727 7.43254089 -15.98848511 7.41189575 -17.296875 7.390625 C-19.25273529 7.38213531 -19.25273529 7.38213531 -21.24810791 7.37347412 C-24.70732523 7.35823338 -28.16586606 7.31896662 -31.62481689 7.2746582 C-35.15733693 7.23367087 -38.68996674 7.21545582 -42.22265625 7.1953125 C-49.14871462 7.15246968 -56.0743248 7.08423815 -63 7 C-62.67 6.01 -62.34 5.02 -62 4 C-60.24429687 4.01740234 -60.24429687 4.01740234 -58.453125 4.03515625 C-46.74113312 4.1133607 -35.02951682 3.98615691 -23.32019043 3.73654175 C-21.69211066 3.70388831 -20.06392112 3.67630774 -18.43566895 3.65383911 C-16.12064202 3.62054401 -13.80674497 3.56840037 -11.4921875 3.51171875 C-10.79509674 3.50532379 -10.09800598 3.49892883 -9.37979126 3.49234009 C-5.32382986 3.36888385 -2.96095561 2.8377791 0 0 Z " fill="#8BAB63" transform="translate(326,237)"/>
<path d="M0 0 C0 4.03303034 -1.27056487 5.07972631 -4 8 C-7.05859375 10.1328125 -7.05859375 10.1328125 -10.4375 12.125 C-12.10619141 13.11886719 -12.10619141 13.11886719 -13.80859375 14.1328125 C-14.86175781 14.74898437 -15.91492188 15.36515625 -17 16 C-18.37285156 16.84691406 -18.37285156 16.84691406 -19.7734375 17.7109375 C-22 19 -22 19 -24.1875 19.5 C-26.40546281 19.89906646 -26.40546281 19.89906646 -28 23 C-30.3125 24.203125 -30.3125 24.203125 -33 25.25 C-34.3303125 25.78367188 -34.3303125 25.78367188 -35.6875 26.328125 C-38 27 -38 27 -40 26 C-36.41629734 22.11373333 -33.01550341 19.66346321 -28.3125 17.125 C-23.94384996 14.72429778 -19.78922379 12.25069924 -15.75 9.3125 C-11.67369822 6.35836422 -7.48330768 4.08885947 -2.93359375 1.9453125 C-1.04189991 1.15012831 -1.04189991 1.15012831 0 0 Z " fill="#9BBC6E" transform="translate(210,195)"/>
<path d="M0 0 C1.32 0.66 2.64 1.32 4 2 C-2.3337584 6.57517537 -8.82305317 10.76923335 -15.5 14.82421875 C-19.29704719 17.1574611 -22.99200953 19.63506769 -26.6875 22.125 C-32.3516648 25.94010125 -38.0872746 29.57757542 -44 33 C-44 31.68 -44 30.36 -44 29 C-42.42700195 27.46020508 -42.42700195 27.46020508 -40.23828125 26.01953125 C-39.44873047 25.49552734 -38.65917969 24.97152344 -37.84570312 24.43164062 C-36.59176758 23.63016602 -36.59176758 23.63016602 -35.3125 22.8125 C-34.49587891 22.26658203 -33.67925781 21.72066406 -32.83789062 21.15820312 C-28.84511563 18.54915906 -25.77558372 16.72732345 -21 16 C-21 15.34 -21 14.68 -21 14 C-18.09451118 11.95830515 -16.59857954 11 -13 11 C-13 10.34 -13 9.68 -13 9 C-10.4385343 6.70351351 -9.52032428 6 -6 6 C-6 5.34 -6 4.68 -6 4 C-4.03852126 2.61061923 -2.03833424 1.2739589 0 0 Z " fill="#93B969" transform="translate(148,296)"/>
<path d="M0 0 C5.30186559 -0.09918586 10.60318618 -0.17161755 15.90576172 -0.21972656 C17.70794081 -0.23979033 19.51005521 -0.26704813 21.31201172 -0.30175781 C23.90869136 -0.35050829 26.50450729 -0.37302082 29.1015625 -0.390625 C30.30191635 -0.42159271 30.30191635 -0.42159271 31.52651978 -0.45318604 C36.8248064 -0.45529134 39.78659551 0.50033275 44 4 C45.4375 6.0625 45.4375 6.0625 46 8 C45.67 8.99 45.34 9.98 45 11 C43.76302083 9.47005208 42.52604167 7.94010417 41.2890625 6.41015625 C40.0333609 4.86733563 40.0333609 4.86733563 38 4 C35.08300726 3.91301772 32.19017452 3.88448077 29.2734375 3.90234375 C28.41062164 3.9037587 27.54780579 3.90517365 26.65884399 3.90663147 C23.8975277 3.91223812 21.13629188 3.92479173 18.375 3.9375 C16.5052095 3.94251414 14.63541774 3.9470772 12.765625 3.95117188 C8.17705223 3.96220971 3.58853977 3.9794788 -1 4 C-0.67 2.68 -0.34 1.36 0 0 Z " fill="#A1C478" transform="translate(354,254)"/>
<path d="M0 0 C0.66 0.33 1.32 0.66 2 1 C4.95985156 1.09344316 7.89602676 1.12573235 10.85595703 1.11352539 C11.77308472 1.11367142 12.6902124 1.11381744 13.63513184 1.1139679 C16.67604919 1.11326948 19.7169058 1.1054804 22.7578125 1.09765625 C24.86245693 1.09579182 26.9671018 1.09436803 29.07174683 1.09336853 C34.61856275 1.08954535 40.1653526 1.07971674 45.7121582 1.06866455 C51.3692998 1.05844616 57.02644559 1.05386999 62.68359375 1.04882812 C73.78907397 1.03809431 84.89453482 1.02102026 96 1 C95.67 1.66 95.34 2.32 95 3 C94.01631439 2.99777939 93.03262878 2.99555878 92.01913452 2.99327087 C82.69346216 2.97289162 73.3677944 2.95795721 64.04210472 2.94818783 C59.24908893 2.94299627 54.45609129 2.93596733 49.66308594 2.92456055 C45.02706349 2.91359795 40.39105837 2.90769518 35.75502396 2.90512276 C33.99704338 2.90329238 32.23906363 2.89971884 30.48109055 2.89426994 C11.00877243 1.48241137 11.00877243 1.48241137 -6 8 C-6.66 7.67 -7.32 7.34 -8 7 C-5.42215154 4.35247996 -3.08351902 2.05567935 0 0 Z " fill="#87AD5D" transform="translate(239,255)"/>
<path d="M0 0 C0.66 0.33 1.32 0.66 2 1 C1.34 1.66 0.68 2.32 0 3 C0 3.99 0 4.98 0 6 C-2.01584538 7.52567021 -3.96784328 8.82735978 -6.125 10.125 C-7.40792689 10.9186653 -8.6904677 11.71295495 -9.97265625 12.5078125 C-10.63668457 12.91547852 -11.30071289 13.32314453 -11.98486328 13.74316406 C-13.97019725 14.9814121 -15.92338372 16.2582011 -17.87109375 17.5546875 C-18.49032715 17.96444824 -19.10956055 18.37420898 -19.74755859 18.79638672 C-20.93223686 19.58202889 -22.11372151 20.37251429 -23.29150391 21.16845703 C-26.50291526 23.27359942 -29.17248734 24.54383462 -33 25 C-29.87868023 20.58333252 -26.53333199 18.12534786 -22 15.375 C-17.2396887 12.45526809 -17.2396887 12.45526809 -12.6875 9.2265625 C-11 8 -11 8 -9 8 C-9 7.34 -9 6.68 -9 6 C-7.03125 4.4921875 -7.03125 4.4921875 -4.5 2.875 C-3.6646875 2.33617187 -2.829375 1.79734375 -1.96875 1.2421875 C-1.3190625 0.83226562 -0.669375 0.42234375 0 0 Z " fill="#A6C77A" transform="translate(236,237)"/>
<path d="M0 0 C-0.3125 1.875 -0.3125 1.875 -1 4 C-4 6 -4 6 -7 6 C-7 6.66 -7 7.32 -7 8 C-11.10836105 11.10632177 -15.25268898 12.97799716 -20 15 C-20.721875 15.5775 -21.44375 16.155 -22.1875 16.75 C-24 18 -24 18 -26.25 17.6875 C-26.8275 17.460625 -27.405 17.23375 -28 17 C-25.17459195 13.983597 -22.32907717 11.78670545 -18.8125 9.625 C-14.42396875 6.90856956 -10.16900919 4.07052434 -5.97265625 1.06640625 C-4 0 -4 0 0 0 Z " fill="#96B66E" transform="translate(169,222)"/>
<path d="M0 0 C0.1875 3.3125 0.1875 3.3125 0 7 C-0.73492424 7.64440788 -0.73492424 7.64440788 -1.48469543 8.30183411 C-3.84897125 10.95142194 -3.40149205 13.36860195 -3.43237305 16.8581543 C-3.4425647 17.55109589 -3.45275635 18.24403748 -3.46325684 18.95797729 C-3.49343443 21.24680618 -3.50265963 23.5352169 -3.51171875 25.82421875 C-3.52856198 27.4117828 -3.54671174 28.99933348 -3.56611633 30.58686829 C-3.61366144 34.76416854 -3.64344142 38.94141461 -3.66955566 43.11889648 C-3.69933858 47.38210757 -3.74587664 51.64513187 -3.79101562 55.90820312 C-3.87709999 64.27204375 -3.94442222 72.6359013 -4 81 C-4.33 81 -4.66 81 -5 81 C-5.09265889 71.02960972 -5.16374407 61.05932178 -5.20724869 51.08858871 C-5.22812826 46.45880684 -5.25645249 41.82931943 -5.30175781 37.19970703 C-5.34520263 32.73228306 -5.36913432 28.26514241 -5.37950897 23.7975235 C-5.38690283 22.09263905 -5.40134132 20.3877702 -5.42292023 18.68300629 C-5.45193694 16.29581636 -5.45595686 13.9097987 -5.45410156 11.52246094 C-5.46848267 10.81683517 -5.48286377 10.11120941 -5.49768066 9.38420105 C-5.46858795 5.92720301 -5.21757079 4.27338034 -3.03411865 1.52984619 C-1 0 -1 0 0 0 Z " fill="#CCE591" transform="translate(52,41)"/>
<path d="M0 0 C1.11181641 0.01289063 2.22363281 0.02578125 3.36914062 0.0390625 C5.09487305 0.08933594 5.09487305 0.08933594 6.85546875 0.140625 C8.02529297 0.15867188 9.19511719 0.17671875 10.40039062 0.1953125 C13.28208655 0.2423606 16.16210672 0.30808791 19.04296875 0.390625 C19.04296875 1.050625 19.04296875 1.710625 19.04296875 2.390625 C18.388125 2.37378662 17.73328125 2.35694824 17.05859375 2.33959961 C4.45154356 1.62238162 4.45154356 1.62238162 -7.125 5.390625 C-9.17323026 7.74298576 -9.17323026 7.74298576 -10.625 10.26171875 C-12.13941937 12.68212508 -13.33735157 13.36406958 -15.95703125 14.390625 C-15.32414743 8.85289156 -12.65709486 5.98547533 -8.6887207 2.26269531 C-5.46597024 0.05409306 -3.86288383 -0.07923864 0 0 Z " fill="#94BB61" transform="translate(394.95703125,196.609375)"/>
<path d="M0 0 C1.3231144 0.03185898 1.3231144 0.03185898 2.67295837 0.06436157 C4.54334971 0.11064036 6.41367705 0.15957 8.28393555 0.2109375 C11.11689812 0.28809709 13.9499658 0.35566979 16.78320312 0.421875 C18.60548352 0.46817213 20.42774978 0.51502992 22.25 0.5625 C23.08580093 0.58234955 23.92160187 0.6021991 24.7827301 0.62265015 C30.58651387 0.78860339 36.32035679 1.26745775 42.08984375 1.9140625 C42.08984375 2.2440625 42.08984375 2.5740625 42.08984375 2.9140625 C24.26984375 2.9140625 6.44984375 2.9140625 -11.91015625 2.9140625 C-11.91015625 2.2540625 -11.91015625 1.5940625 -11.91015625 0.9140625 C-7.919002 -0.41632225 -4.15161032 -0.11672784 0 0 Z " fill="#93B66D" transform="translate(213.91015625,281.0859375)"/>
<path d="M0 0 C-1.63114358 4.89343074 -5.67611363 6.2187001 -10.078125 8.546875 C-16.41961917 11.25908328 -23.27183101 10.54412663 -30 10 C-30.33 8.68 -30.66 7.36 -31 6 C-29.53240234 6.05220703 -29.53240234 6.05220703 -28.03515625 6.10546875 C-17.17039283 6.43183577 -17.17039283 6.43183577 -7 3 C-6.51015625 2.47019531 -6.0203125 1.94039063 -5.515625 1.39453125 C-4 0 -4 0 0 0 Z " fill="#8AA967" transform="translate(96,333)"/>
<path d="M0 0 C0.66 1.32 1.32 2.64 2 4 C-13.84 4 -29.68 4 -46 4 C-42.94075228 1.96050152 -42.27413087 1.74536865 -38.81982422 1.69702148 C-37.98240692 1.68037949 -37.14498962 1.66373749 -36.28219604 1.64659119 C-35.38211823 1.63817703 -34.48204041 1.62976288 -33.5546875 1.62109375 C-32.62907013 1.60409927 -31.70345276 1.5871048 -30.74978638 1.56959534 C-27.79159362 1.51643015 -24.83341538 1.47614229 -21.875 1.4375 C-18.90951431 1.39362903 -15.94413961 1.3469914 -12.97879028 1.29469299 C-11.13258172 1.26263832 -9.28627465 1.23577905 -7.43991089 1.21446228 C-3.39716256 1.55499714 -3.39716256 1.55499714 0 0 Z " fill="#83AB57" transform="translate(397,240)"/>
<path d="M0 0 C1.20970459 0.00523682 2.41940918 0.01047363 3.66577148 0.01586914 C4.97094727 0.0190918 6.27612305 0.02231445 7.62084961 0.02563477 C9.00952213 0.03399138 10.39819401 0.04245634 11.78686523 0.05102539 C13.17944179 0.05603873 14.57202005 0.06060193 15.96459961 0.06469727 C19.38456394 0.07653105 22.80444367 0.09301659 26.22436523 0.11352539 C25.89436523 0.77352539 25.56436523 1.43352539 25.22436523 2.11352539 C16.31436523 2.11352539 7.40436523 2.11352539 -1.77563477 2.11352539 C-1.77563477 7.39352539 -1.77563477 12.67352539 -1.77563477 18.11352539 C-2.43563477 18.11352539 -3.09563477 18.11352539 -3.77563477 18.11352539 C-3.80247789 15.30096258 -3.82239664 12.48865298 -3.83813477 9.67602539 C-3.84651367 8.87358398 -3.85489258 8.07114258 -3.86352539 7.24438477 C-3.87214907 5.20057318 -3.82791626 3.15668637 -3.77563477 1.11352539 C-2.77563477 0.11352539 -2.77563477 0.11352539 0 0 Z " fill="#9DC376" transform="translate(413.775634765625,225.886474609375)"/>
<path d="M0 0 C0.66 0.33 1.32 0.66 2 1 C1.360625 1.28875 0.72125 1.5775 0.0625 1.875 C-2.15206079 2.82823451 -2.15206079 2.82823451 -3 5 C0.465 4.505 0.465 4.505 4 4 C3.01 4.7734375 3.01 4.7734375 2 5.5625 C-2.47683081 9.19992503 -6.91907389 12.91907389 -11 17 C-11.33 16.01 -11.66 15.02 -12 14 C-12.66 14 -13.32 14 -14 14 C-12.64359718 9.80614912 -10.88833018 7.61163385 -7.5625 4.75 C-6.78003906 4.06421875 -5.99757813 3.3784375 -5.19140625 2.671875 C-3 1 -3 1 0 0 Z " fill="#B3C780" transform="translate(63,28)"/>
<path d="M0 0 C1.98 1.65 3.96 3.3 6 5 C5.43796041 8.37223755 4.57519796 9.69155312 1.875 11.75 C-0.91102223 14.00046785 -3.24958112 16.32717722 -5.5625 19.0625 C-8.45902319 22.47672756 -11.47360212 25.24768946 -15 28 C-15 23.95136013 -13.70680732 22.98442858 -11 20 C-9.25200549 18.46290042 -7.46988337 16.97510702 -5.67578125 15.4921875 C-3.49502913 13.55035228 -1.81158943 11.28126076 0 9 C0.66 9 1.32 9 2 9 C0.60240095 5.45481116 0.60240095 5.45481116 -1 2 C-0.67 1.34 -0.34 0.68 0 0 Z " fill="#88A85B" transform="translate(380,175)"/>
<path d="M0 0 C0 0.66 0 1.32 0 2 C-3.17290713 3.58645357 -6.58825384 3.12078213 -10.0703125 3.09765625 C-11.26465408 3.09553383 -11.26465408 3.09553383 -12.48312378 3.09336853 C-15.0304538 3.08776345 -17.57769647 3.07521014 -20.125 3.0625 C-21.85025915 3.05748565 -23.57551967 3.05292263 -25.30078125 3.04882812 C-29.53388791 3.03779237 -33.76692914 3.02052436 -38 3 C-38 2.34 -38 1.68 -38 1 C-33.39187551 0.85660392 -28.7837213 0.71421847 -24.17553711 0.57275391 C-22.60912236 0.52452665 -21.04271596 0.47602721 -19.47631836 0.42724609 C-17.21991096 0.35702446 -14.96347495 0.28779396 -12.70703125 0.21875 C-11.66298882 0.18593933 -11.66298882 0.18593933 -10.59785461 0.15246582 C-7.06378443 0.04531153 -3.53571155 -0.02395063 0 0 Z " fill="#99BE72" transform="translate(393,281)"/>
<path d="M0 0 C0 4.13918593 -1.09992183 5.03087235 -4 8 C-8.98673327 11.54365464 -13.73884306 14.67046542 -20 15 C-17.7814754 10.54765064 -15.4582873 8.7415584 -11.125 6.375 C-9.58199219 5.52035156 -9.58199219 5.52035156 -8.0078125 4.6484375 C-7.01523438 4.10445312 -6.02265625 3.56046875 -5 3 C-3.32855639 2.00800501 -1.66014526 1.01078955 0 0 Z " fill="#A5C776" transform="translate(210,195)"/>
<path d="M0 0 C8.58 0 17.16 0 26 0 C27.59412284 3.18824568 27.10174735 6.62896662 27.0625 10.125 C27.05798828 10.87910156 27.05347656 11.63320312 27.04882812 12.41015625 C27.03703499 14.27347127 27.01909942 16.13674555 27 18 C26.01 18 25.02 18 24 18 C23.67 13.05 23.34 8.1 23 3 C23.66 3 24.32 3 25 3 C25 2.34 25 1.68 25 1 C16.75 1 8.5 1 0 1 C0 0.67 0 0.34 0 0 Z " fill="#799555" transform="translate(389,196)"/>
<path d="M0 0 C-1.33501447 4.0050434 -3.2334918 4.7357118 -6.75 7 C-7.79671875 7.680625 -8.8434375 8.36125 -9.921875 9.0625 C-10.93765625 9.701875 -11.9534375 10.34125 -13 11 C-14.33804687 11.8971875 -14.33804687 11.8971875 -15.703125 12.8125 C-16.46109375 13.204375 -17.2190625 13.59625 -18 14 C-18.99 13.67 -19.98 13.34 -21 13 C-8.36111111 0 -8.36111111 0 0 0 Z " fill="#BDD88F" transform="translate(279,212)"/>
<path d="M0 0 C7.16955017 2.71280277 7.16955017 2.71280277 9.25 5.9375 C10 8 10 8 9 11 C7.76302083 9.47005208 6.52604167 7.94010417 5.2890625 6.41015625 C3.03140497 3.94041574 1.81287956 3.9893971 -1.62353516 3.79467773 C-3.17858788 3.7527993 -4.73378615 3.7161248 -6.2890625 3.68359375 C-7.51669815 3.6524221 -7.51669815 3.6524221 -8.76913452 3.62062073 C-11.38766966 3.55515188 -14.00630639 3.49625274 -16.625 3.4375 C-18.39844807 3.39431224 -20.17188581 3.35069786 -21.9453125 3.30664062 C-26.29677046 3.19947324 -30.64833077 3.09819831 -35 3 C-35 2.67 -35 2.34 -35 2 C-23.45 2 -11.9 2 0 2 C0 1.34 0 0.68 0 0 Z " fill="#8BB263" transform="translate(390,254)"/>
<path d="M0 0 C0.33 0.99 0.66 1.98 1 3 C0.11957031 3.12117188 -0.76085937 3.24234375 -1.66796875 3.3671875 C-2.82941406 3.53476562 -3.99085937 3.70234375 -5.1875 3.875 C-6.91033203 4.11863281 -6.91033203 4.11863281 -8.66796875 4.3671875 C-11.96288614 4.87606551 -11.96288614 4.87606551 -14.73828125 6.1328125 C-17 7 -17 7 -20 6 C-15.13840292 -1.29239562 -7.91455097 -0.34578135 0 0 Z " fill="#D4E79E" transform="translate(79,27)"/>
<path d="M0 0 C0.65701904 0.15847412 1.31403809 0.31694824 1.9909668 0.48022461 C5.70891874 1.12245744 9.38236157 1.23141397 13.14453125 1.31640625 C14.2992115 1.3475779 14.2992115 1.3475779 15.47721863 1.37937927 C17.92222667 1.44446049 20.36733683 1.50356591 22.8125 1.5625 C24.47592177 1.60572468 26.13933344 1.64934021 27.80273438 1.69335938 C31.86838648 1.80009907 35.93414071 1.90148171 40 2 C40 2.33 40 2.66 40 3 C29.77 3 19.54 3 9 3 C9.66 4.65 10.32 6.3 11 8 C6.89160936 6.54997977 3.49655387 4.6020866 0 2 C0 1.34 0 0.68 0 0 Z " fill="#BDDD86" transform="translate(193,81)"/>
<path d="M0 0 C3.64918582 3.64918582 3.16330663 7.44923003 3.1875 12.375 C3.20167969 13.68210938 3.21585937 14.98921875 3.23046875 16.3359375 C3.0164804 19.73798963 2.48144811 21.96683747 1 25 C-1.34303239 20.31393522 -1.04532434 15.46551835 -0.5625 10.375 C-0.24034321 6.87613257 0 3.51822554 0 0 Z " fill="#A5BB7E" transform="translate(298,171)"/>
<path d="M0 0 C-1.07401108 2.91517292 -1.77810176 4.77810176 -4 7 C-4.36952049 9.12860662 -4.36952049 9.12860662 -4.4140625 11.5703125 C-4.45273438 12.46621094 -4.49140625 13.36210937 -4.53125 14.28515625 C-4.5621875 15.22230469 -4.593125 16.15945312 -4.625 17.125 C-4.66367188 18.06988281 -4.70234375 19.01476562 -4.7421875 19.98828125 C-4.83661346 22.32532375 -4.92218394 24.66235501 -5 27 C-5.33 27 -5.66 27 -6 27 C-6.28495579 23.43939678 -6.52175485 19.87715219 -6.75 16.3125 C-6.83121094 15.30509766 -6.91242188 14.29769531 -6.99609375 13.25976562 C-7.44010954 5.78549985 -7.44010954 5.78549985 -5.203125 1.79296875 C-3 0 -3 0 0 0 Z " fill="#ACCE76" transform="translate(112,128)"/>
<path d="M0 0 C6.16529701 0.31616908 10.17268433 3.49215061 15 7 C14.67 8.32 14.34 9.64 14 11 C12.22891052 9.87540329 10.45813764 8.75030797 8.6875 7.625 C7.20830078 6.68527344 7.20830078 6.68527344 5.69921875 5.7265625 C3.78712071 4.50348387 1.8885966 3.2590644 0 2 C0 1.34 0 0.68 0 0 Z " fill="#CCE693" transform="translate(178,91)"/>
<path d="M0 0 C0 0.99 0 1.98 0 3 C-2.5 5.1875 -2.5 5.1875 -5 7 C-5 6.34 -5 5.68 -5 5 C-16.55 5 -28.1 5 -40 5 C-40 4.67 -40 4.34 -40 4 C-38.39560059 3.97812622 -38.39560059 3.97812622 -36.75878906 3.95581055 C-32.78514406 3.89777699 -28.81206275 3.82054481 -24.83886719 3.73754883 C-23.12021035 3.70432319 -21.40144501 3.67628384 -19.68261719 3.65356445 C-17.20981677 3.61997439 -14.73800844 3.56765822 -12.265625 3.51171875 C-11.11540863 3.50213387 -11.11540863 3.50213387 -9.94195557 3.49235535 C-5.70832409 3.37603671 -3.06900356 3.03718209 0 0 Z " fill="#82A854" transform="translate(326,237)"/>
<path d="M0 0 C4.91541209 0.45724764 7.33870158 1.73451763 11 5 C11.99 5.66 12.98 6.32 14 7 C14 7.66 14 8.32 14 9 C10.61108678 8.31113213 7.81988387 7.01283514 4.75 5.4375 C3.85796875 4.98246094 2.9659375 4.52742188 2.046875 4.05859375 C1.37140625 3.70925781 0.6959375 3.35992187 0 3 C0 2.01 0 1.02 0 0 Z " fill="#D3E893" transform="translate(93,36)"/>
<path d="M0 0 C0.66 0.33 1.32 0.66 2 1 C0.86526069 4.40421794 -0.63148118 5.48715892 -3.37890625 7.66796875 C-5.24215145 9.15488114 -5.24215145 9.15488114 -7.6875 11.6875 C-10 14 -10 14 -13 16 C-12.42308522 12.83145253 -11.58353113 11.21773541 -9.27734375 8.984375 C-8.73916016 8.45585937 -8.20097656 7.92734375 -7.64648438 7.3828125 C-7.08251953 6.84398437 -6.51855469 6.30515625 -5.9375 5.75 C-5.36966797 5.19570312 -4.80183594 4.64140625 -4.21679688 4.0703125 C-2.81787531 2.70665786 -1.40980886 1.35239583 0 0 Z " fill="#86AB5A" transform="translate(358,227)"/>
<path d="M0 0 C4 0 4 0 6.25 1.875 C8 4 8 4 8 6 C8.639375 6.268125 9.27875 6.53625 9.9375 6.8125 C12 8 12 8 13 11 C6.72092936 9.77481548 3.66083188 5.92804292 0 1 C0 0.67 0 0.34 0 0 Z " fill="#94B86D" transform="translate(49,327)"/>
<path d="M0 0 C5.28776943 0.33048559 9.24100622 3.48352195 13 7 C13 7.66 13 8.32 13 9 C9.70319035 8.34215037 7.15882078 7.10579427 4.25 5.4375 C3.45078125 4.98246094 2.6515625 4.52742188 1.828125 4.05859375 C1.22484375 3.70925781 0.6215625 3.35992187 0 3 C0 2.01 0 1.02 0 0 Z " fill="#CDE89A" transform="translate(218,116)"/>
<path d="M0 0 C4.89839668 -0.34884724 7.65895937 0.53207378 11.875 3 C12.84179688 3.556875 13.80859375 4.11375 14.8046875 4.6875 C15.52914062 5.120625 16.25359375 5.55375 17 6 C14.29889598 7.35055201 11.99210994 7 9 7 C6.73828125 5.72265625 6.73828125 5.72265625 4.3125 4.0625 C3.50425781 3.51722656 2.69601563 2.97195312 1.86328125 2.41015625 C1.24839844 1.94480469 0.63351563 1.47945312 0 1 C0 0.67 0 0.34 0 0 Z " fill="#CAE287" transform="translate(126,59)"/>
<path d="M0 0 C4.30764815 1.56641751 8.06171464 3.68336156 12 6 C11.01 6.495 11.01 6.495 10 7 C9.01 6.67 8.02 6.34 7 6 C7 6.66 7 7.32 7 8 C3.62496331 6.8141763 1.35277269 5.72426311 -1 3 C-0.67 2.01 -0.34 1.02 0 0 Z " fill="#BED282" transform="translate(86,30)"/>
<path d="M0 0 C1.67739258 0.14018555 1.67739258 0.14018555 3.38867188 0.28320312 C5.13954102 0.43885742 5.13954102 0.43885742 6.92578125 0.59765625 C8.10462891 0.69755859 9.28347656 0.79746094 10.49804688 0.90039062 C13.41197681 1.14813366 16.32529317 1.40161076 19.23828125 1.66015625 C19.23828125 1.99015625 19.23828125 2.32015625 19.23828125 2.66015625 C9.99828125 2.66015625 0.75828125 2.66015625 -8.76171875 2.66015625 C-8.76171875 2.00015625 -8.76171875 1.34015625 -8.76171875 0.66015625 C-5.44172136 -0.44650955 -3.46573479 -0.29907356 0 0 Z " fill="#8AB063" transform="translate(210.76171875,281.33984375)"/>
<path d="M0 0 C0.66 0.33 1.32 0.66 2 1 C0.60919892 2.58775549 -0.78788404 4.17000939 -2.1875 5.75 C-2.96480469 6.63171875 -3.74210937 7.5134375 -4.54296875 8.421875 C-6.88455246 10.87886268 -9.30158265 12.94862766 -12 15 C-12 10.92412524 -10.74008328 10.01409161 -8 7 C-5.38714613 4.60155971 -2.71262052 2.28465854 0 0 Z " fill="#8EB260" transform="translate(377,188)"/>
<path d="M0 0 C0.66 0.33 1.32 0.66 2 1 C0.68 2.32 -0.64 3.64 -2 5 C-1.34 5.33 -0.68 5.66 0 6 C-1.78710586 6.86366822 -3.5798465 7.71568594 -5.375 8.5625 C-6.37273437 9.03816406 -7.37046875 9.51382813 -8.3984375 10.00390625 C-9.25695312 10.33261719 -10.11546875 10.66132813 -11 11 C-11.66 10.67 -12.32 10.34 -13 10 C-9.23156953 5.87827917 -5.11095695 2.36931779 0 0 Z " fill="#93B16A" transform="translate(183,211)"/>
<path d="M0 0 C0.66 0.99 1.32 1.98 2 3 C-0.475 4.485 -0.475 4.485 -3 6 C2.28 6.33 7.56 6.66 13 7 C13 7.33 13 7.66 13 8 C10.04142591 8.05379226 7.08382279 8.09357093 4.125 8.125 C2.86236328 8.15013672 2.86236328 8.15013672 1.57421875 8.17578125 C0.76855469 8.18222656 -0.03710938 8.18867188 -0.8671875 8.1953125 C-1.61081543 8.20578613 -2.35444336 8.21625977 -3.12060547 8.22705078 C-5 8 -5 8 -7 6 C-4.69 4.02 -2.38 2.04 0 0 Z " fill="#7B9E51" transform="translate(273,234)"/>
<path d="M0 0 C4.50802601 1.25805377 7.4912812 2.90407165 11 6 C10.67 6.99 10.34 7.98 10 9 C5.71522208 6.69281189 2.27708863 4.67033927 -1 1 C-0.67 0.67 -0.34 0.34 0 0 Z " fill="#C8E396" transform="translate(251,137)"/>
<path d="M0 0 C-1.1566677 3.47000311 -1.85726716 3.84701459 -4.875 5.6875 C-5.57367188 6.12449219 -6.27234375 6.56148438 -6.9921875 7.01171875 C-9 8 -9 8 -12 8 C-10.01351708 2.43784783 -5.71424233 0 0 0 Z " fill="#A8CA7D" transform="translate(202,263)"/>
<path d="M0 0 C4.28477792 2.30718811 7.72291137 4.32966073 11 8 C9.35 8.33 7.7 8.66 6 9 C6 8.34 6 7.68 6 7 C4.02 6.34 2.04 5.68 0 5 C0 3.33333333 0 1.66666667 0 0 Z " fill="#C1DE91" transform="translate(278,153)"/>
<path d="M0 0 C0 3.97054597 -1.3139381 5.16471244 -4 8 C-6 8.9375 -6 8.9375 -8 9 C-9.34977849 8.36729133 -10.68580447 7.70364219 -12 7 C-11.21753906 6.57847656 -10.43507812 6.15695313 -9.62890625 5.72265625 C-8.61699219 5.17480469 -7.60507813 4.62695312 -6.5625 4.0625 C-5.55316406 3.51722656 -4.54382813 2.97195312 -3.50390625 2.41015625 C-1.13329507 1.22300532 -1.13329507 1.22300532 0 0 Z " fill="#98B96B" transform="translate(210,195)"/>
<path d="M0 0 C-2.87436167 2.87436167 -5.00027708 2.96762555 -9.015625 3.09765625 C-10.08296875 3.08605469 -11.1503125 3.07445312 -12.25 3.0625 C-13.32765625 3.05347656 -14.4053125 3.04445312 -15.515625 3.03515625 C-16.33546875 3.02355469 -17.1553125 3.01195312 -18 3 C-18 2.34 -18 1.68 -18 1 C-17.16855469 0.93941406 -16.33710937 0.87882813 -15.48046875 0.81640625 C-13.85044922 0.69072266 -13.85044922 0.69072266 -12.1875 0.5625 C-11.10855469 0.48128906 -10.02960938 0.40007812 -8.91796875 0.31640625 C-1.47272727 -0.49090909 -1.47272727 -0.49090909 0 0 Z " fill="#A8CA7A" transform="translate(138,243)"/>
<path d="M0 0 C0.99 0.33 1.98 0.66 3 1 C2.40832031 1.38671875 1.81664063 1.7734375 1.20703125 2.171875 C-3.01413301 4.95384949 -7.12058072 7.74629351 -11 11 C-11 9.02 -11 7.04 -11 5 C-10.113125 4.731875 -9.22625 4.46375 -8.3125 4.1875 C-4.9988194 3.1333932 -4.9988194 3.1333932 -2.3125 1.3125 C-1.1678125 0.6628125 -1.1678125 0.6628125 0 0 Z " fill="#C3E179" transform="translate(64,32)"/>
<path d="M0 0 C0.33 0.66 0.66 1.32 1 2 C5.29 2 9.58 2 14 2 C14 2.33 14 2.66 14 3 C12.58847656 3.03867187 12.58847656 3.03867187 11.1484375 3.078125 C1.75179121 3.34046049 1.75179121 3.34046049 -6 8 C-6.66 7.67 -7.32 7.34 -8 7 C-5.42215154 4.35247996 -3.08351902 2.05567935 0 0 Z " fill="#7C9F56" transform="translate(239,255)"/>
<path d="M0 0 C1.32 0 2.64 0 4 0 C2.77974937 3.6607519 1.873509 3.92339441 -1.4375 5.6875 C-2.64212891 6.34298828 -2.64212891 6.34298828 -3.87109375 7.01171875 C-6 8 -6 8 -8 8 C-8.33 7.01 -8.66 6.02 -9 5 C-8.071875 4.731875 -7.14375 4.46375 -6.1875 4.1875 C-3.04195492 3.26715813 -3.04195492 3.26715813 -1.375 1.375 C-0.92125 0.92125 -0.4675 0.4675 0 0 Z " fill="#90B368" transform="translate(92,333)"/>
<path d="M0 0 C0.33 0 0.66 0 1 0 C1.78774617 8.03501094 1.78774617 8.03501094 -1.5 12.0625 C-2.325 12.701875 -3.15 13.34125 -4 14 C-4.66 13.34 -5.32 12.68 -6 12 C-5.65066406 11.55269531 -5.30132812 11.10539062 -4.94140625 10.64453125 C-2.31101372 7.14976044 -0.40792858 4.48721443 0 0 Z " fill="#8EB56B" transform="translate(400,267)"/>
<path d="M0 0 C1.48484412 0.39595843 2.9628831 0.81750706 4.4375 1.25 C5.26121094 1.48203125 6.08492187 1.7140625 6.93359375 1.953125 C9 3 9 3 9.78515625 5.109375 C9.85605469 5.73328125 9.92695313 6.3571875 10 7 C5.58738468 5.79655946 2.95916118 4.52823064 0 1 C0 0.67 0 0.34 0 0 Z " fill="#D3EA95" transform="translate(136,64)"/>
<path d="M0 0 C2.4375 0.625 2.4375 0.625 5 2 C5.8125 5.125 5.8125 5.125 6 8 C2.88801935 6.50163895 -0.0534615 4.80066242 -3 3 C-2.01 2.01 -1.02 1.02 0 0 Z " fill="#C1D887" transform="translate(146,68)"/>
<path d="M0 0 C3 2 3 2 4 5 C4.06802967 6.72795352 4.08495645 8.45835365 4.0625 10.1875 C4.05347656 11.08855469 4.04445313 11.98960937 4.03515625 12.91796875 C4.02355469 13.60503906 4.01195312 14.29210937 4 15 C3.01 14.34 2.02 13.68 1 13 C0.7421875 10.72265625 0.7421875 10.72265625 0.875 8.0625 C1.0150779 4.89207012 1.01764424 3.05293273 0 0 Z " fill="#86A666" transform="translate(398,259)"/>
<path d="M0 0 C1.32 0.33 2.64 0.66 4 1 C0.7 3.31 -2.6 5.62 -6 8 C-6 7.01 -6 6.02 -6 5 C-3.25 2.25 -3.25 2.25 0 0 Z " fill="#87AD5B" transform="translate(281,228)"/>
<path d="M0 0 C1.32 0 2.64 0 4 0 C3.34 1.65 2.68 3.3 2 5 C0.35 5 -1.3 5 -3 5 C-1.75 2.5 -1.75 2.5 0 0 Z " fill="#9EBE75" transform="translate(157,227)"/>
<path d="M0 0 C-1.24976756 3.65316671 -1.67098753 4.78065836 -5 7 C-5.99 6.67 -6.98 6.34 -8 6 C-3.375 0 -3.375 0 0 0 Z " fill="#83A655" transform="translate(387,201)"/>
<path d="M0 0 C3.37462715 0.54723683 5.08235 1.0549 8 3 C7.67 4.32 7.34 5.64 7 7 C1.125 3.375 1.125 3.375 0 0 Z " fill="#D1EB9B" transform="translate(185,95)"/>
<path d="M0 0 C2.3125 0.1875 2.3125 0.1875 5 1 C6.875 3.375 6.875 3.375 8 6 C7.67 6.99 7.34 7.98 7 9 C5.14453125 6.70507812 5.14453125 6.70507812 3.2890625 4.41015625 C2.0333609 2.86733563 2.0333609 2.86733563 0 2 C0 1.34 0 0.68 0 0 Z " fill="#99BF71" transform="translate(392,256)"/>
<path d="M0 0 C0.66 0.33 1.32 0.66 2 1 C1.375 2.9375 1.375 2.9375 0 5 C-5.18918919 6.40540541 -5.18918919 6.40540541 -8 5 C-6.71475739 4.13619741 -5.42157581 3.28419631 -4.125 2.4375 C-3.04605469 1.72400391 -3.04605469 1.72400391 -1.9453125 0.99609375 C-1.30335938 0.66738281 -0.66140625 0.33867187 0 0 Z " fill="#85A062" transform="translate(141,237)"/>
<path d="M0 0 C0 0.66 0 1.32 0 2 C-2.8125 4.1875 -2.8125 4.1875 -6 6 C-6.99 5.67 -7.98 5.34 -9 5 C-7.68 4.34 -6.36 3.68 -5 3 C-5 2.34 -5 1.68 -5 1 C-3 0 -3 0 0 0 Z " fill="#9AC16F" transform="translate(132,309)"/>
<path d="M0 0 C0.125 3.375 0.125 3.375 0 7 C-0.66 7.66 -1.32 8.32 -2 9 C-2.33 7.68 -2.66 6.36 -3 5 C-3.99 5.495 -3.99 5.495 -5 6 C-2.84615385 0 -2.84615385 0 0 0 Z " fill="#C7E186" transform="translate(52,41)"/>
<path d="M0 0 C0.66 0.33 1.32 0.66 2 1 C-0.64 2.98 -3.28 4.96 -6 7 C-6.66 6.67 -7.32 6.34 -8 6 C-3.375 1.125 -3.375 1.125 0 0 Z " fill="#83AD5A" transform="translate(217,272)"/>
<path d="M0 0 C-1 3 -1 3 -2.875 4.25 C-5 5 -5 5 -8 4 C-4.5 0 -4.5 0 0 0 Z " fill="#ACCE7F" transform="translate(211,257)"/>
<path d="M0 0 C2.475 0.99 2.475 0.99 5 2 C5 3.32 5 4.64 5 6 C0.125 4.25 0.125 4.25 -1 2 C-0.67 1.34 -0.34 0.68 0 0 Z " fill="#C6E092" transform="translate(231,123)"/>
<path d="M0 0 C4.95 0.99 4.95 0.99 10 2 C9.01 2.495 9.01 2.495 8 3 C8 3.66 8 4.32 8 5 C2.25 3.375 2.25 3.375 0 0 Z " fill="#8BA967" transform="translate(57,336)"/>
<path d="M0 0 C0.99 0.33 1.98 0.66 3 1 C2.0479279 2.00596297 1.08812654 3.00461563 0.125 4 C-0.40867187 4.556875 -0.94234375 5.11375 -1.4921875 5.6875 C-3 7 -3 7 -5 7 C-3.70700306 4.11562221 -2.34058637 2.12780579 0 0 Z " fill="#8FB561" transform="translate(335,228)"/>
<path d="M0 0 C0.66 0.33 1.32 0.66 2 1 C-4.14285714 7.71428571 -4.14285714 7.71428571 -9 8 C-6.17493137 5.0702992 -3.21203935 2.49825283 0 0 Z " fill="#39462F" transform="translate(527,190)"/>
<path d="M0 0 C0.99 0 1.98 0 3 0 C2.67 1.98 2.34 3.96 2 6 C1.01 6.33 0.02 6.66 -1 7 C-0.67 4.69 -0.34 2.38 0 0 Z " fill="#C5E199" transform="translate(296,190)"/>
<path d="M0 0 C2.4375 0.6875 2.4375 0.6875 5 2 C5.8125 4.625 5.8125 4.625 6 7 C3 5.1875 3 5.1875 0 3 C0 2.01 0 1.02 0 0 Z " fill="#CCE99A" transform="translate(286,160)"/>
<path d="M0 0 C2.475 0.99 2.475 0.99 5 2 C4.67 3.32 4.34 4.64 4 6 C2.68 5.67 1.36 5.34 0 5 C0 3.35 0 1.7 0 0 Z " fill="#B8D08A" transform="translate(193,98)"/>
<path d="M0 0 C3.77545388 1.09068668 6.47043472 1.9083091 9 5 C8.01 5.495 8.01 5.495 7 6 C1.125 2.25 1.125 2.25 0 0 Z " fill="#8FAF5F" transform="translate(212,94)"/>
<path d="M0 0 C2 1 2 1 3 3 C1.02 3.99 -0.96 4.98 -3 6 C-3 4.68 -3 3.36 -3 2 C-2.01 1.34 -1.02 0.68 0 0 Z " fill="#8EB466" transform="translate(107,323)"/>
<path d="M0 0 C1.65 0.99 3.3 1.98 5 3 C4.67 3.99 4.34 4.98 4 6 C1.525 5.01 1.525 5.01 -1 4 C-0.67 2.68 -0.34 1.36 0 0 Z " fill="#B7D588" transform="translate(278,153)"/>
<path d="M0 0 C0.99 0 1.98 0 3 0 C2.34 1.65 1.68 3.3 1 5 C0.01 5 -0.98 5 -2 5 C-2 2 -2 2 0 0 Z " fill="#9CC264" transform="translate(109,128)"/>
<path d="M0 0 C2.475 0.99 2.475 0.99 5 2 C5 2.66 5 3.32 5 4 C5.66 4.33 6.32 4.66 7 5 C4.03 4.505 4.03 4.505 1 4 C0.67 2.68 0.34 1.36 0 0 Z " fill="#CDE996" transform="translate(197,102)"/>
<path d="M0 0 C3.34373475 0.55728913 6.03312999 1.35173889 9 3 C6.29889598 4.35055201 3.99210994 4 1 4 C0.67 2.68 0.34 1.36 0 0 Z " fill="#B8CD80" transform="translate(134,62)"/>
<path d="M0 0 C2.9375 0.8125 2.9375 0.8125 6 2 C6.33 2.99 6.66 3.98 7 5 C4.61435923 4.42415568 2.33317216 3.77772405 0 3 C0 2.01 0 1.02 0 0 Z " fill="#DDEFA3" transform="translate(100,40)"/>
<path d="M0 0 C0.99 0.33 1.98 0.66 3 1 C1.68 2.32 0.36 3.64 -1 5 C-1.99 4.67 -2.98 4.34 -4 4 C-2.68 2.68 -1.36 1.36 0 0 Z " fill="#A1C377" transform="translate(188,270)"/>
<path d="M0 0 C0.66 0.33 1.32 0.66 2 1 C0.68 2.65 -0.64 4.3 -2 6 C-3.32 5.67 -4.64 5.34 -6 5 C-4.02 3.35 -2.04 1.7 0 0 Z " fill="#7B9B55" transform="translate(288,222)"/>
<path d="M0 0 C2.475 0.495 2.475 0.495 5 1 C5.33 2.32 5.66 3.64 6 5 C3.5625 4.1875 3.5625 4.1875 1 3 C0.67 2.01 0.34 1.02 0 0 Z " fill="#CFE99D" transform="translate(256,141)"/>
<path d="M0 0 C1.65 0 3.3 0 5 0 C5.66 1.65 6.32 3.3 7 5 C3.34683329 3.75023244 2.21934164 3.32901247 0 0 Z " fill="#9DBB6B" transform="translate(197,84)"/>
<path d="M0 0 C2.475 0.495 2.475 0.495 5 1 C5.33 1.99 5.66 2.98 6 4 C4.35 3.67 2.7 3.34 1 3 C0.67 2.01 0.34 1.02 0 0 Z " fill="#D5EA94" transform="translate(116,51)"/>
</svg>
